    <svg version="1.1" viewBox="0.0 0.0 600.0 371.0" fill="none" stroke="none" stroke-linecap="square" stroke-miterlimit="10" width="600" height="371" xmlns:xlink="http://www.w3.org/1999/xlink" xmlns="http://www.w3.org/2000/svg"><path fill="#ffffff" d="M0 0L600.0 0L600.0 371.0L0 371.0L0 0Z" fill-rule="nonzero"/><path stroke="#cccccc" stroke-width="1.0" stroke-linecap="butt" d="M66.5 88.5L66.5 300.5" fill-rule="nonzero"/><path stroke="#cccccc" stroke-width="1.0" stroke-linecap="butt" d="M195.5 88.5L195.5 300.5" fill-rule="nonzero"/><path stroke="#cccccc" stroke-width="1.0" stroke-linecap="butt" d="M324.5 88.5L324.5 300.5" fill-rule="nonzero"/><path stroke="#cccccc" stroke-width="1.0" stroke-linecap="butt" d="M452.5 88.5L452.5 300.5" fill-rule="nonzero"/><path stroke="#cccccc" stroke-width="1.0" stroke-linecap="butt" d="M581.5 88.5L581.5 300.5" fill-rule="nonzero"/><path stroke="#333333" stroke-width="1.0" stroke-linecap="butt" d="M66.5 300.5L581.5 300.5" fill-rule="nonzero"/><path stroke="#cccccc" stroke-width="1.0" stroke-linecap="butt" d="M66.5 229.5L581.5 229.5" fill-rule="nonzero"/><path stroke="#cccccc" stroke-width="1.0" stroke-linecap="butt" d="M66.5 159.5L581.5 159.5" fill-rule="nonzero"/><path stroke="#cccccc" stroke-width="1.0" stroke-linecap="butt" d="M66.5 88.5L581.5 88.5" fill-rule="nonzero"/><clipPath id="id_0"><path d="M66.55 88.28333L581.45 88.28333L581.45 300.45L66.55 300.45L66.55 88.28333Z" clip-rule="nonzero"/></clipPath><path stroke="#4285f4" stroke-width="2.0" stroke-linecap="butt" clip-path="url(#id_0)" d="M66.55 256.85117L195.275 216.87401L336.8725 209.38312L452.725 176.99234L581.45 160.44475" fill-rule="nonzero"/><path stroke="#ea4335" stroke-width="2.0" stroke-linecap="butt" clip-path="url(#id_0)" d="M66.55 257.13123L195.275 226.68884L336.8725 176.39897L452.725 145.89507L581.45 92.55354" fill-rule="nonzero"/><path fill="#000000" fill-opacity="0.0" clip-path="url(#id_0)" d="M69.55 256.85117C69.55 258.50803 68.206856 259.85117 66.55 259.85117C64.89314 259.85117 63.55 258.50803 63.55 256.85117C63.55 255.1943 64.89314 253.85117 66.55 253.85117C68.206856 253.85117 69.55 255.1943 69.55 256.85117Z" fill-rule="nonzero"/><path fill="#000000" fill-opacity="0.0" clip-path="url(#id_0)" d="M198.275 216.87401C198.275 218.53087 196.93185 219.87401 195.275 219.87401C193.61815 219.87401 192.275 218.53087 192.275 216.87401C192.275 215.21716 193.61815 213.87401 195.275 213.87401C196.93185 213.87401 198.275 215.21716 198.275 216.87401Z" fill-rule="nonzero"/><path fill="#000000" fill-opacity="0.0" clip-path="url(#id_0)" d="M339.8725 209.38312C339.8725 211.03996 338.52936 212.38312 336.8725 212.38312C335.21564 212.38312 333.8725 211.03996 333.8725 209.38312C333.8725 207.72626 335.21564 206.38312 336.8725 206.38312C338.52936 206.38312 339.8725 207.72626 339.8725 209.38312Z" fill-rule="nonzero"/><path fill="#000000" fill-opacity="0.0" clip-path="url(#id_0)" d="M455.725 176.99234C455.725 178.64919 454.38187 179.99234 452.725 179.99234C451.06815 179.99234 449.725 178.64919 449.725 176.99234C449.725 175.33548 451.06815 173.99234 452.725 173.99234C454.38187 173.99234 455.725 175.33548 455.725 176.99234Z" fill-rule="nonzero"/><path fill="#000000" fill-opacity="0.0" clip-path="url(#id_0)" d="M584.45 160.44475C584.45 162.10161 583.1069 163.44475 581.45 163.44475C579.79315 163.44475 578.45 162.10161 578.45 160.44475C578.45 158.7879 579.79315 157.44475 581.45 157.44475C583.1069 157.44475 584.45 158.7879 584.45 160.44475Z" fill-rule="nonzero"/><path fill="#000000" fill-opacity="0.0" clip-path="url(#id_0)" d="M69.55 257.13123C69.55 258.7881 68.206856 260.13123 66.55 260.13123C64.89314 260.13123 63.55 258.7881 63.55 257.13123C63.55 255.47437 64.89314 254.13123 66.55 254.13123C68.206856 254.13123 69.55 255.47437 69.55 257.13123Z" fill-rule="nonzero"/><path fill="#000000" fill-opacity="0.0" clip-path="url(#id_0)" d="M198.275 226.68884C198.275 228.3457 196.93185 229.68884 195.275 229.68884C193.61815 229.68884 192.275 228.3457 192.275 226.68884C192.275 225.03198 193.61815 223.68884 195.275 223.68884C196.93185 223.68884 198.275 225.03198 198.275 226.68884Z" fill-rule="nonzero"/><path fill="#000000" fill-opacity="0.0" clip-path="url(#id_0)" d="M339.8725 176.39897C339.8725 178.05583 338.52936 179.39897 336.8725 179.39897C335.21564 179.39897 333.8725 178.05583 333.8725 176.39897C333.8725 174.74213 335.21564 173.39897 336.8725 173.39897C338.52936 173.39897 339.8725 174.74213 339.8725 176.39897Z" fill-rule="nonzero"/><path fill="#000000" fill-opacity="0.0" clip-path="url(#id_0)" d="M455.725 145.89507C455.725 147.55193 454.38187 148.89507 452.725 148.89507C451.06815 148.89507 449.725 147.55193 449.725 145.89507C449.725 144.23822 451.06815 142.89507 452.725 142.89507C454.38187 142.89507 455.725 144.23822 455.725 145.89507Z" fill-rule="nonzero"/><path fill="#000000" fill-opacity="0.0" clip-path="url(#id_0)" d="M584.45 92.55354C584.45 94.210396 583.1069 95.55354 581.45 95.55354C579.79315 95.55354 578.45 94.210396 578.45 92.55354C578.45 90.89669 579.79315 89.55354 581.45 89.55354C583.1069 89.55354 584.45 90.89669 584.45 92.55354Z" fill-rule="nonzero"/><path fill="#000000" d="M313.48438 349.45L316.78125 340.85626L318.0 340.85626L321.51562 349.45L320.23438 349.45L319.21875 346.84064L315.64062 346.84064L314.6875 349.45L313.48438 349.45ZM315.96875 345.91876L318.875 345.91876L317.98438 343.54376Q317.5625 342.46564 317.375 341.7625Q317.20312 342.59064 316.90625 343.40314L315.96875 345.91876ZM321.29688 349.45L321.29688 343.23126L322.23438 343.23126L322.23438 344.10626Q322.92188 343.09064 324.21875 343.09064Q324.78125 343.09064 325.25 343.29376Q325.73438 343.4969 325.96875 343.825Q326.20312 344.15314 326.29688 344.59064Q326.34375 344.8875 326.34375 345.6219L326.34375 349.45L325.29688 349.45L325.29688 345.66876Q325.29688 345.0125 325.17188 344.7Q325.04688 344.3875 324.73438 344.2Q324.42188 343.9969 324.0 343.9969Q323.32812 343.9969 322.82812 344.4344Q322.34375 344.85626 322.34375 346.04376L322.34375 349.45L321.29688 349.45ZM327.90625 346.34064Q327.90625 344.60626 328.85938 343.77814Q329.65625 343.09064 330.8125 343.09064Q332.09375 343.09064 332.90625 343.9344Q333.73438 344.7625 333.73438 346.2469Q333.73438 347.45 333.375 348.1375Q333.01562 348.825 332.3125 349.21564Q331.625 349.59064 330.8125 349.59064Q329.51562 349.59064 328.70312 348.7625Q327.90625 347.91876 327.90625 346.34064ZM328.98438 346.34064Q328.98438 347.52814 329.5 348.1219Q330.03125 348.71564 330.8125 348.71564Q331.60938 348.71564 332.125 348.1219Q332.64062 347.52814 332.64062 346.3094Q332.64062 345.15314 332.10938 344.5594Q331.59375 343.96564 330.8125 343.96564Q330.03125 343.96564 329.5 344.5594Q328.98438 345.1375 328.98438 346.34064Z" fill-rule="nonzero"/><path fill="#000000" d="M54.05 300.21564Q54.05 298.6844 54.3625 297.7625Q54.675 296.825 55.284374 296.325Q55.909374 295.825 56.846874 295.825Q57.534374 295.825 58.05 296.10626Q58.58125 296.3875 58.925 296.91876Q59.26875 297.4344 59.45625 298.1844Q59.64375 298.9344 59.64375 300.21564Q59.64375 301.73126 59.33125 302.65314Q59.034374 303.575 58.409374 304.09064Q57.8 304.59064 56.846874 304.59064Q55.6125 304.59064 54.89375 303.7Q54.05 302.6375 54.05 300.21564ZM55.128124 300.21564Q55.128124 302.325 55.628124 303.02814Q56.128124 303.73126 56.846874 303.73126Q57.58125 303.73126 58.065624 303.02814Q58.565624 302.325 58.565624 300.21564Q58.565624 298.09064 58.065624 297.40314Q57.58125 296.7 56.83125 296.7Q56.1125 296.7 55.675 297.3094Q55.128124 298.09064 55.128124 300.21564Z" fill-rule="nonzero"/><path fill="#000000" d="M23.01875 233.72778L21.971874 233.72778L21.971874 227.00903Q21.58125 227.36841 20.95625 227.74341Q20.346874 228.10278 19.8625 228.27466L19.8625 227.25903Q20.7375 226.83716 21.39375 226.25903Q22.065624 225.66528 22.346874 225.10278L23.01875 225.10278L23.01875 233.72778ZM26.05 229.49341Q26.05 227.96216 26.3625 227.04028Q26.675 226.10278 27.284374 225.60278Q27.909374 225.10278 28.846874 225.10278Q29.534374 225.10278 30.05 225.38403Q30.58125 225.66528 30.925 226.19653Q31.26875 226.71216 31.45625 227.46216Q31.64375 228.21216 31.64375 229.49341Q31.64375 231.00903 31.33125 231.93091Q31.034374 232.85278 30.409374 233.36841Q29.8 233.86841 28.846874 233.86841Q27.6125 233.86841 26.89375 232.97778Q26.05 231.91528 26.05 229.49341ZM27.128124 229.49341Q27.128124 231.60278 27.628124 232.30591Q28.128124 233.00903 28.846874 233.00903Q29.58125 233.00903 30.065624 232.30591Q30.565624 231.60278 30.565624 229.49341Q30.565624 227.36841 30.065624 226.68091Q29.58125 225.97778 28.83125 225.97778Q28.1125 225.97778 27.675 226.58716Q27.128124 227.36841 27.128124 229.49341ZM33.05 229.49341Q33.05 227.96216 33.3625 227.04028Q33.675 226.10278 34.284374 225.60278Q34.909374 225.10278 35.846874 225.10278Q36.534374 225.10278 37.05 225.38403Q37.58125 225.66528 37.925 226.19653Q38.26875 226.71216 38.45625 227.46216Q38.64375 228.21216 38.64375 229.49341Q38.64375 231.00903 38.33125 231.93091Q38.034374 232.85278 37.409374 233.36841Q36.8 233.86841 35.846874 233.86841Q34.6125 233.86841 33.89375 232.97778Q33.05 231.91528 33.05 229.49341ZM34.128124 229.49341Q34.128124 231.60278 34.628124 232.30591Q35.128124 233.00903 35.846874 233.00903Q36.58125 233.00903 37.065624 232.30591Q37.565624 231.60278 37.565624 229.49341Q37.565624 227.36841 37.065624 226.68091Q36.58125 225.97778 35.83125 225.97778Q35.1125 225.97778 34.675 226.58716Q34.128124 227.36841 34.128124 229.49341ZM40.05 229.49341Q40.05 227.96216 40.3625 227.04028Q40.675 226.10278 41.284374 225.60278Q41.909374 225.10278 42.846874 225.10278Q43.534374 225.10278 44.05 225.38403Q44.58125 225.66528 44.925 226.19653Q45.26875 226.71216 45.45625 227.46216Q45.64375 228.21216 45.64375 229.49341Q45.64375 231.00903 45.33125 231.93091Q45.034374 232.85278 44.409374 233.36841Q43.8 233.86841 42.846874 233.86841Q41.6125 233.86841 40.89375 232.97778Q40.05 231.91528 40.05 229.49341ZM41.128124 229.49341Q41.128124 231.60278 41.628124 232.30591Q42.128124 233.00903 42.846874 233.00903Q43.58125 233.00903 44.065624 232.30591Q44.565624 231.60278 44.565624 229.49341Q44.565624 227.36841 44.065624 226.68091Q43.58125 225.97778 42.83125 225.97778Q42.1125 225.97778 41.675 226.58716Q41.128124 227.36841 41.128124 229.49341ZM47.05 229.49341Q47.05 227.96216 47.3625 227.04028Q47.675 226.10278 48.284374 225.60278Q48.909374 225.10278 49.846874 225.10278Q50.534374 225.10278 51.05 225.38403Q51.58125 225.66528 51.925 226.19653Q52.26875 226.71216 52.45625 227.46216Q52.64375 228.21216 52.64375 229.49341Q52.64375 231.00903 52.33125 231.93091Q52.034374 232.85278 51.409374 233.36841Q50.8 233.86841 49.846874 233.86841Q48.6125 233.86841 47.89375 232.97778Q47.05 231.91528 47.05 229.49341ZM48.128124 229.49341Q48.128124 231.60278 48.628124 232.30591Q49.128124 233.00903 49.846874 233.00903Q50.58125 233.00903 51.065624 232.30591Q51.565624 231.60278 51.565624 229.49341Q51.565624 227.36841 51.065624 226.68091Q50.58125 225.97778 49.83125 225.97778Q49.1125 225.97778 48.675 226.58716Q48.128124 227.36841 48.128124 229.49341ZM54.05 229.49341Q54.05 227.96216 54.3625 227.04028Q54.675 226.10278 55.284374 225.60278Q55.909374 225.10278 56.846874 225.10278Q57.534374 225.10278 58.05 225.38403Q58.58125 225.66528 58.925 226.19653Q59.26875 226.71216 59.45625 227.46216Q59.64375 228.21216 59.64375 229.49341Q59.64375 231.00903 59.33125 231.93091Q59.034374 232.85278 58.409374 233.36841Q57.8 233.86841 56.846874 233.86841Q55.6125 233.86841 54.89375 232.97778Q54.05 231.91528 54.05 229.49341ZM55.128124 229.49341Q55.128124 231.60278 55.628124 232.30591Q56.128124 233.00903 56.846874 233.00903Q57.58125 233.00903 58.065624 232.30591Q58.565624 231.60278 58.565624 229.49341Q58.565624 227.36841 58.065624 226.68091Q57.58125 225.97778 56.83125 225.97778Q56.1125 225.97778 55.675 226.58716Q55.128124 227.36841 55.128124 229.49341Z" fill-rule="nonzero"/><path fill="#000000" d="M24.596874 161.98993L24.596874 163.00555L18.909374 163.00555Q18.909374 162.63055 19.034374 162.27118Q19.253124 161.69305 19.721874 161.13055Q20.20625 160.56805 21.1125 159.83368Q22.51875 158.67743 23.003124 158.00555Q23.503124 157.33368 23.503124 156.73993Q23.503124 156.11493 23.05 155.69305Q22.596874 155.25555 21.878124 155.25555Q21.1125 155.25555 20.659374 155.70868Q20.20625 156.1618 20.190624 156.9743L19.1125 156.86493Q19.221874 155.64618 19.940624 155.02118Q20.675 154.38055 21.909374 154.38055Q23.14375 154.38055 23.8625 155.06805Q24.58125 155.75555 24.58125 156.77118Q24.58125 157.2868 24.3625 157.7868Q24.159374 158.27118 23.659374 158.83368Q23.175 159.38055 22.05 160.33368Q21.096874 161.13055 20.815624 161.42743Q20.55 161.70868 20.378124 161.98993L24.596874 161.98993ZM26.05 158.77118Q26.05 157.23993 26.3625 156.31805Q26.675 155.38055 27.284374 154.88055Q27.909374 154.38055 28.846874 154.38055Q29.534374 154.38055 30.05 154.6618Q30.58125 154.94305 30.925 155.4743Q31.26875 155.98993 31.45625 156.73993Q31.64375 157.48993 31.64375 158.77118Q31.64375 160.2868 31.33125 161.20868Q31.034374 162.13055 30.409374 162.64618Q29.8 163.14618 28.846874 163.14618Q27.6125 163.14618 26.89375 162.25555Q26.05 161.19305 26.05 158.77118ZM27.128124 158.77118Q27.128124 160.88055 27.628124 161.58368Q28.128124 162.2868 28.846874 162.2868Q29.58125 162.2868 30.065624 161.58368Q30.565624 160.88055 30.565624 158.77118Q30.565624 156.64618 30.065624 155.95868Q29.58125 155.25555 28.83125 155.25555Q28.1125 155.25555 27.675 155.86493Q27.128124 156.64618 27.128124 158.77118ZM33.05 158.77118Q33.05 157.23993 33.3625 156.31805Q33.675 155.38055 34.284374 154.88055Q34.909374 154.38055 35.846874 154.38055Q36.534374 154.38055 37.05 154.6618Q37.58125 154.94305 37.925 155.4743Q38.26875 155.98993 38.45625 156.73993Q38.64375 157.48993 38.64375 158.77118Q38.64375 160.2868 38.33125 161.20868Q38.034374 162.13055 37.409374 162.64618Q36.8 163.14618 35.846874 163.14618Q34.6125 163.14618 33.89375 162.25555Q33.05 161.19305 33.05 158.77118ZM34.128124 158.77118Q34.128124 160.88055 34.628124 161.58368Q35.128124 162.2868 35.846874 162.2868Q36.58125 162.2868 37.065624 161.58368Q37.565624 160.88055 37.565624 158.77118Q37.565624 156.64618 37.065624 155.95868Q36.58125 155.25555 35.83125 155.25555Q35.1125 155.25555 34.675 155.86493Q34.128124 156.64618 34.128124 158.77118ZM40.05 158.77118Q40.05 157.23993 40.3625 156.31805Q40.675 155.38055 41.284374 154.88055Q41.909374 154.38055 42.846874 154.38055Q43.534374 154.38055 44.05 154.6618Q44.58125 154.94305 44.925 155.4743Q45.26875 155.98993 45.45625 156.73993Q45.64375 157.48993 45.64375 158.77118Q45.64375 160.2868 45.33125 161.20868Q45.034374 162.13055 44.409374 162.64618Q43.8 163.14618 42.846874 163.14618Q41.6125 163.14618 40.89375 162.25555Q40.05 161.19305 40.05 158.77118ZM41.128124 158.77118Q41.128124 160.88055 41.628124 161.58368Q42.128124 162.2868 42.846874 162.2868Q43.58125 162.2868 44.065624 161.58368Q44.565624 160.88055 44.565624 158.77118Q44.565624 156.64618 44.065624 155.95868Q43.58125 155.25555 42.83125 155.25555Q42.1125 155.25555 41.675 155.86493Q41.128124 156.64618 41.128124 158.77118ZM47.05 158.77118Q47.05 157.23993 47.3625 156.31805Q47.675 155.38055 48.284374 154.88055Q48.909374 154.38055 49.846874 154.38055Q50.534374 154.38055 51.05 154.6618Q51.58125 154.94305 51.925 155.4743Q52.26875 155.98993 52.45625 156.73993Q52.64375 157.48993 52.64375 158.77118Q52.64375 160.2868 52.33125 161.20868Q52.034374 162.13055 51.409374 162.64618Q50.8 163.14618 49.846874 163.14618Q48.6125 163.14618 47.89375 162.25555Q47.05 161.19305 47.05 158.77118ZM48.128124 158.77118Q48.128124 160.88055 48.628124 161.58368Q49.128124 162.2868 49.846874 162.2868Q50.58125 162.2868 51.065624 161.58368Q51.565624 160.88055 51.565624 158.77118Q51.565624 156.64618 51.065624 155.95868Q50.58125 155.25555 49.83125 155.25555Q49.1125 155.25555 48.675 155.86493Q48.128124 156.64618 48.128124 158.77118ZM54.05 158.77118Q54.05 157.23993 54.3625 156.31805Q54.675 155.38055 55.284374 154.88055Q55.909374 154.38055 56.846874 154.38055Q57.534374 154.38055 58.05 154.6618Q58.58125 154.94305 58.925 155.4743Q59.26875 155.98993 59.45625 156.73993Q59.64375 157.48993 59.64375 158.77118Q59.64375 160.2868 59.33125 161.20868Q59.034374 162.13055 58.409374 162.64618Q57.8 163.14618 56.846874 163.14618Q55.6125 163.14618 54.89375 162.25555Q54.05 161.19305 54.05 158.77118ZM55.128124 158.77118Q55.128124 160.88055 55.628124 161.58368Q56.128124 162.2868 56.846874 162.2868Q57.58125 162.2868 58.065624 161.58368Q58.565624 160.88055 58.565624 158.77118Q58.565624 156.64618 58.065624 155.95868Q57.58125 155.25555 56.83125 155.25555Q56.1125 155.25555 55.675 155.86493Q55.128124 156.64618 55.128124 158.77118Z" fill-rule="nonzero"/><path fill="#000000" d="M19.05 90.01771L20.1125 89.87708Q20.284374 90.76771 20.721874 91.17396Q21.159374 91.56458 21.784374 91.56458Q22.534374 91.56458 23.05 91.04896Q23.565624 90.53333 23.565624 89.76771Q23.565624 89.04896 23.08125 88.58021Q22.6125 88.09583 21.878124 88.09583Q21.58125 88.09583 21.128124 88.22083L21.253124 87.28333Q21.3625 87.29896 21.425 87.29896Q22.096874 87.29896 22.628124 86.95521Q23.175 86.59583 23.175 85.86146Q23.175 85.28333 22.784374 84.90833Q22.39375 84.51771 21.76875 84.51771Q21.159374 84.51771 20.7375 84.90833Q20.33125 85.29896 20.221874 86.06458L19.159374 85.87708Q19.346874 84.83021 20.034374 84.25208Q20.721874 83.65833 21.7375 83.65833Q22.440624 83.65833 23.034374 83.97083Q23.628124 84.26771 23.940624 84.78333Q24.253124 85.29896 24.253124 85.89271Q24.253124 86.43958 23.95625 86.90833Q23.659374 87.36146 23.08125 87.62708Q23.83125 87.79896 24.253124 88.36146Q24.675 88.90833 24.675 89.75208Q24.675 90.87708 23.846874 91.65833Q23.034374 92.43958 21.784374 92.43958Q20.659374 92.43958 19.909374 91.76771Q19.159374 91.08021 19.05 90.01771ZM26.05 88.04896Q26.05 86.51771 26.3625 85.59583Q26.675 84.65833 27.284374 84.15833Q27.909374 83.65833 28.846874 83.65833Q29.534374 83.65833 30.05 83.93958Q30.58125 84.22083 30.925 84.75208Q31.26875 85.26771 31.45625 86.01771Q31.64375 86.76771 31.64375 88.04896Q31.64375 89.56458 31.33125 90.48646Q31.034374 91.40833 30.409374 91.92396Q29.8 92.42396 28.846874 92.42396Q27.6125 92.42396 26.89375 91.53333Q26.05 90.47083 26.05 88.04896ZM27.128124 88.04896Q27.128124 90.15833 27.628124 90.86146Q28.128124 91.56458 28.846874 91.56458Q29.58125 91.56458 30.065624 90.86146Q30.565624 90.15833 30.565624 88.04896Q30.565624 85.92396 30.065624 85.23646Q29.58125 84.53333 28.83125 84.53333Q28.1125 84.53333 27.675 85.14271Q27.128124 85.92396 27.128124 88.04896ZM33.05 88.04896Q33.05 86.51771 33.3625 85.59583Q33.675 84.65833 34.284374 84.15833Q34.909374 83.65833 35.846874 83.65833Q36.534374 83.65833 37.05 83.93958Q37.58125 84.22083 37.925 84.75208Q38.26875 85.26771 38.45625 86.01771Q38.64375 86.76771 38.64375 88.04896Q38.64375 89.56458 38.33125 90.48646Q38.034374 91.40833 37.409374 91.92396Q36.8 92.42396 35.846874 92.42396Q34.6125 92.42396 33.89375 91.53333Q33.05 90.47083 33.05 88.04896ZM34.128124 88.04896Q34.128124 90.15833 34.628124 90.86146Q35.128124 91.56458 35.846874 91.56458Q36.58125 91.56458 37.065624 90.86146Q37.565624 90.15833 37.565624 88.04896Q37.565624 85.92396 37.065624 85.23646Q36.58125 84.53333 35.83125 84.53333Q35.1125 84.53333 34.675 85.14271Q34.128124 85.92396 34.128124 88.04896ZM40.05 88.04896Q40.05 86.51771 40.3625 85.59583Q40.675 84.65833 41.284374 84.15833Q41.909374 83.65833 42.846874 83.65833Q43.534374 83.65833 44.05 83.93958Q44.58125 84.22083 44.925 84.75208Q45.26875 85.26771 45.45625 86.01771Q45.64375 86.76771 45.64375 88.04896Q45.64375 89.56458 45.33125 90.48646Q45.034374 91.40833 44.409374 91.92396Q43.8 92.42396 42.846874 92.42396Q41.6125 92.42396 40.89375 91.53333Q40.05 90.47083 40.05 88.04896ZM41.128124 88.04896Q41.128124 90.15833 41.628124 90.86146Q42.128124 91.56458 42.846874 91.56458Q43.58125 91.56458 44.065624 90.86146Q44.565624 90.15833 44.565624 88.04896Q44.565624 85.92396 44.065624 85.23646Q43.58125 84.53333 42.83125 84.53333Q42.1125 84.53333 41.675 85.14271Q41.128124 85.92396 41.128124 88.04896ZM47.05 88.04896Q47.05 86.51771 47.3625 85.59583Q47.675 84.65833 48.284374 84.15833Q48.909374 83.65833 49.846874 83.65833Q50.534374 83.65833 51.05 83.93958Q51.58125 84.22083 51.925 84.75208Q52.26875 85.26771 52.45625 86.01771Q52.64375 86.76771 52.64375 88.04896Q52.64375 89.56458 52.33125 90.48646Q52.034374 91.40833 51.409374 91.92396Q50.8 92.42396 49.846874 92.42396Q48.6125 92.42396 47.89375 91.53333Q47.05 90.47083 47.05 88.04896ZM48.128124 88.04896Q48.128124 90.15833 48.628124 90.86146Q49.128124 91.56458 49.846874 91.56458Q50.58125 91.56458 51.065624 90.86146Q51.565624 90.15833 51.565624 88.04896Q51.565624 85.92396 51.065624 85.23646Q50.58125 84.53333 49.83125 84.53333Q49.1125 84.53333 48.675 85.14271Q48.128124 85.92396 48.128124 88.04896ZM54.05 88.04896Q54.05 86.51771 54.3625 85.59583Q54.675 84.65833 55.284374 84.15833Q55.909374 83.65833 56.846874 83.65833Q57.534374 83.65833 58.05 83.93958Q58.58125 84.22083 58.925 84.75208Q59.26875 85.26771 59.45625 86.01771Q59.64375 86.76771 59.64375 88.04896Q59.64375 89.56458 59.33125 90.48646Q59.034374 91.40833 58.409374 91.92396Q57.8 92.42396 56.846874 92.42396Q55.6125 92.42396 54.89375 91.53333Q54.05 90.47083 54.05 88.04896ZM55.128124 88.04896Q55.128124 90.15833 55.628124 90.86146Q56.128124 91.56458 56.846874 91.56458Q57.58125 91.56458 58.065624 90.86146Q58.565624 90.15833 58.565624 88.04896Q58.565624 85.92396 58.065624 85.23646Q57.58125 84.53333 56.83125 84.53333Q56.1125 84.53333 55.675 85.14271Q55.128124 85.92396 55.128124 88.04896Z" fill-rule="nonzero"/><path fill="#000000" d="M57.01875 317.45L55.971874 317.45L55.971874 310.73126Q55.58125 311.09064 54.95625 311.46564Q54.346874 311.825 53.8625 311.9969L53.8625 310.98126Q54.7375 310.5594 55.39375 309.98126Q56.065624 309.3875 56.346874 308.825L57.01875 308.825L57.01875 317.45ZM60.20625 315.46564L61.221874 315.3719Q61.346874 316.09064 61.70625 316.41876Q62.08125 316.73126 62.64375 316.73126Q63.128124 316.73126 63.4875 316.5125Q63.8625 316.27814 64.09688 315.91876Q64.33125 315.54376 64.4875 314.91876Q64.64375 314.27814 64.64375 313.6219Q64.64375 313.54376 64.64375 313.40314Q64.33125 313.90314 63.784374 314.23126Q63.2375 314.54376 62.596874 314.54376Q61.51875 314.54376 60.784374 313.77814Q60.05 312.9969 60.05 311.73126Q60.05 310.41876 60.815624 309.6219Q61.596874 308.825 62.753124 308.825Q63.58125 308.825 64.26875 309.27814Q64.97188 309.73126 65.33125 310.575Q65.69063 311.40314 65.69063 312.98126Q65.69063 314.6219 65.33125 315.60626Q64.9875 316.575 64.26875 317.09064Q63.565624 317.59064 62.628124 317.59064Q61.6125 317.59064 60.971874 317.04376Q60.33125 316.48126 60.20625 315.46564ZM64.51875 311.66876Q64.51875 310.7625 64.03438 310.23126Q63.565624 309.7 62.878124 309.7Q62.175 309.7 61.64375 310.27814Q61.128124 310.84064 61.128124 311.7625Q61.128124 312.575 61.628124 313.09064Q62.128124 313.60626 62.846874 313.60626Q63.58125 313.60626 64.05 313.09064Q64.51875 312.575 64.51875 311.66876ZM67.1125 309.98126L67.1125 308.96564L72.675 308.96564L72.675 309.79376Q71.8625 310.66876 71.05 312.1219Q70.25313 313.5594 69.81563 315.09064Q69.4875 316.16876 69.40938 317.45L68.31563 317.45Q68.33125 316.4344 68.70625 314.9969Q69.09688 313.5594 69.8 312.23126Q70.51875 310.90314 71.33125 309.98126L67.1125 309.98126ZM74.05 313.21564Q74.05 311.6844 74.3625 310.7625Q74.675 309.825 75.28438 309.325Q75.90938 308.825 76.84688 308.825Q77.53438 308.825 78.05 309.10626Q78.58125 309.3875 78.925 309.91876Q79.26875 310.4344 79.45625 311.1844Q79.64375 311.9344 79.64375 313.21564Q79.64375 314.73126 79.33125 315.65314Q79.03438 316.575 78.40938 317.09064Q77.8 317.59064 76.84688 317.59064Q75.6125 317.59064 74.89375 316.7Q74.05 315.6375 74.05 313.21564ZM75.12813 313.21564Q75.12813 315.325 75.62813 316.02814Q76.12813 316.73126 76.84688 316.73126Q77.58125 316.73126 78.06563 316.02814Q78.56563 315.325 78.56563 313.21564Q78.56563 311.09064 78.06563 310.40314Q77.58125 309.7 76.83125 309.7Q76.1125 309.7 75.675 310.3094Q75.12813 311.09064 75.12813 313.21564Z" fill-rule="nonzero"/><path fill="#000000" d="M185.74374 317.45L184.69687 317.45L184.69687 310.73126Q184.30624 311.09064 183.68124 311.46564Q183.07187 311.825 182.5875 311.9969L182.5875 310.98126Q183.4625 310.5594 184.11874 309.98126Q184.79062 309.3875 185.07187 308.825L185.74374 308.825L185.74374 317.45ZM188.93124 315.46564L189.94687 315.3719Q190.07187 316.09064 190.43124 316.41876Q190.80624 316.73126 191.36874 316.73126Q191.85312 316.73126 192.2125 316.5125Q192.5875 316.27814 192.82187 315.91876Q193.05624 315.54376 193.2125 314.91876Q193.36874 314.27814 193.36874 313.6219Q193.36874 313.54376 193.36874 313.40314Q193.05624 313.90314 192.50937 314.23126Q191.9625 314.54376 191.32187 314.54376Q190.24374 314.54376 189.50937 313.77814Q188.775 312.9969 188.775 311.73126Q188.775 310.41876 189.54062 309.6219Q190.32187 308.825 191.47812 308.825Q192.30624 308.825 192.99374 309.27814Q193.69687 309.73126 194.05624 310.575Q194.41562 311.40314 194.41562 312.98126Q194.41562 314.6219 194.05624 315.60626Q193.7125 316.575 192.99374 317.09064Q192.29062 317.59064 191.35312 317.59064Q190.3375 317.59064 189.69687 317.04376Q189.05624 316.48126 188.93124 315.46564ZM193.24374 311.66876Q193.24374 310.7625 192.75937 310.23126Q192.29062 309.7 191.60312 309.7Q190.9 309.7 190.36874 310.27814Q189.85312 310.84064 189.85312 311.7625Q189.85312 312.575 190.35312 313.09064Q190.85312 313.60626 191.57187 313.60626Q192.30624 313.60626 192.775 313.09064Q193.24374 312.575 193.24374 311.66876ZM197.4 312.79376Q196.74374 312.54376 196.41562 312.10626Q196.10312 311.65314 196.10312 311.04376Q196.10312 310.10626 196.775 309.46564Q197.4625 308.825 198.57187 308.825Q199.69687 308.825 200.38437 309.48126Q201.07187 310.1375 201.07187 311.075Q201.07187 311.66876 200.75937 312.10626Q200.44687 312.54376 199.80624 312.79376Q200.60312 313.04376 201.00937 313.6219Q201.41562 314.2 201.41562 314.9969Q201.41562 316.09064 200.63437 316.84064Q199.86874 317.59064 198.5875 317.59064Q197.32187 317.59064 196.54062 316.84064Q195.75937 316.09064 195.75937 314.96564Q195.75937 314.1219 196.18124 313.5594Q196.61874 312.9969 197.4 312.79376ZM197.18124 310.9969Q197.18124 311.60626 197.57187 311.9969Q197.97812 312.3875 198.60312 312.3875Q199.2125 312.3875 199.60312 312.0125Q199.99374 311.6219 199.99374 311.0594Q199.99374 310.48126 199.5875 310.09064Q199.18124 309.6844 198.5875 309.6844Q197.97812 309.6844 197.57187 310.075Q197.18124 310.46564 197.18124 310.9969ZM196.85312 314.96564Q196.85312 315.41876 197.05624 315.84064Q197.275 316.2625 197.69687 316.4969Q198.11874 316.73126 198.60312 316.73126Q199.35312 316.73126 199.8375 316.2469Q200.3375 315.7625 200.3375 315.0125Q200.3375 314.2469 199.8375 313.7469Q199.3375 313.2469 198.57187 313.2469Q197.82187 313.2469 197.3375 313.7469Q196.85312 314.23126 196.85312 314.96564ZM202.775 313.21564Q202.775 311.6844 203.0875 310.7625Q203.4 309.825 204.00937 309.325Q204.63437 308.825 205.57187 308.825Q206.25937 308.825 206.775 309.10626Q207.30624 309.3875 207.65 309.91876Q207.99374 310.4344 208.18124 311.1844Q208.36874 311.9344 208.36874 313.21564Q208.36874 314.73126 208.05624 315.65314Q207.75937 316.575 207.13437 317.09064Q206.525 317.59064 205.57187 317.59064Q204.3375 317.59064 203.61874 316.7Q202.775 315.6375 202.775 313.21564ZM203.85312 313.21564Q203.85312 315.325 204.35312 316.02814Q204.85312 316.73126 205.57187 316.73126Q206.30624 316.73126 206.79062 316.02814Q207.29062 315.325 207.29062 313.21564Q207.29062 311.09064 206.79062 310.40314Q206.30624 309.7 205.55624 309.7Q204.8375 309.7 204.4 310.3094Q203.85312 311.09064 203.85312 313.21564Z" fill-rule="nonzero"/><path fill="#000000" d="M314.46875 317.45L313.42188 317.45L313.42188 310.73126Q313.03125 311.09064 312.40625 311.46564Q311.79688 311.825 311.3125 311.9969L311.3125 310.98126Q312.1875 310.5594 312.84375 309.98126Q313.51562 309.3875 313.79688 308.825L314.46875 308.825L314.46875 317.45ZM317.65625 315.46564L318.67188 315.3719Q318.79688 316.09064 319.15625 316.41876Q319.53125 316.73126 320.09375 316.73126Q320.57812 316.73126 320.9375 316.5125Q321.3125 316.27814 321.54688 315.91876Q321.78125 315.54376 321.9375 314.91876Q322.09375 314.27814 322.09375 313.6219Q322.09375 313.54376 322.09375 313.40314Q321.78125 313.90314 321.23438 314.23126Q320.6875 314.54376 320.04688 314.54376Q318.96875 314.54376 318.23438 313.77814Q317.5 312.9969 317.5 311.73126Q317.5 310.41876 318.26562 309.6219Q319.04688 308.825 320.20312 308.825Q321.03125 308.825 321.71875 309.27814Q322.42188 309.73126 322.78125 310.575Q323.14062 311.40314 323.14062 312.98126Q323.14062 314.6219 322.78125 315.60626Q322.4375 316.575 321.71875 317.09064Q321.01562 317.59064 320.07812 317.59064Q319.0625 317.59064 318.42188 317.04376Q317.78125 316.48126 317.65625 315.46564ZM321.96875 311.66876Q321.96875 310.7625 321.48438 310.23126Q321.01562 309.7 320.32812 309.7Q319.625 309.7 319.09375 310.27814Q318.57812 310.84064 318.57812 311.7625Q318.57812 312.575 319.07812 313.09064Q319.57812 313.60626 320.29688 313.60626Q321.03125 313.60626 321.5 313.09064Q321.96875 312.575 321.96875 311.66876ZM324.65625 315.46564L325.67188 315.3719Q325.79688 316.09064 326.15625 316.41876Q326.53125 316.73126 327.09375 316.73126Q327.57812 316.73126 327.9375 316.5125Q328.3125 316.27814 328.54688 315.91876Q328.78125 315.54376 328.9375 314.91876Q329.09375 314.27814 329.09375 313.6219Q329.09375 313.54376 329.09375 313.40314Q328.78125 313.90314 328.23438 314.23126Q327.6875 314.54376 327.04688 314.54376Q325.96875 314.54376 325.23438 313.77814Q324.5 312.9969 324.5 311.73126Q324.5 310.41876 325.26562 309.6219Q326.04688 308.825 327.20312 308.825Q328.03125 308.825 328.71875 309.27814Q329.42188 309.73126 329.78125 310.575Q330.14062 311.40314 330.14062 312.98126Q330.14062 314.6219 329.78125 315.60626Q329.4375 316.575 328.71875 317.09064Q328.01562 317.59064 327.07812 317.59064Q326.0625 317.59064 325.42188 317.04376Q324.78125 316.48126 324.65625 315.46564ZM328.96875 311.66876Q328.96875 310.7625 328.48438 310.23126Q328.01562 309.7 327.32812 309.7Q326.625 309.7 326.09375 310.27814Q325.57812 310.84064 325.57812 311.7625Q325.57812 312.575 326.07812 313.09064Q326.57812 313.60626 327.29688 313.60626Q328.03125 313.60626 328.5 313.09064Q328.96875 312.575 328.96875 311.66876ZM331.5 313.21564Q331.5 311.6844 331.8125 310.7625Q332.125 309.825 332.73438 309.325Q333.35938 308.825 334.29688 308.825Q334.98438 308.825 335.5 309.10626Q336.03125 309.3875 336.375 309.91876Q336.71875 310.4344 336.90625 311.1844Q337.09375 311.9344 337.09375 313.21564Q337.09375 314.73126 336.78125 315.65314Q336.48438 316.575 335.85938 317.09064Q335.25 317.59064 334.29688 317.59064Q333.0625 317.59064 332.34375 316.7Q331.5 315.6375 331.5 313.21564ZM332.57812 313.21564Q332.57812 315.325 333.07812 316.02814Q333.57812 316.73126 334.29688 316.73126Q335.03125 316.73126 335.51562 316.02814Q336.01562 315.325 336.01562 313.21564Q336.01562 311.09064 335.51562 310.40314Q335.03125 309.7 334.28125 309.7Q333.5625 309.7 333.125 310.3094Q332.57812 311.09064 332.57812 313.21564Z" fill-rule="nonzero"/><path fill="#000000" d="M444.77188 316.4344L444.77188 317.45L439.08438 317.45Q439.08438 317.075 439.20938 316.71564Q439.42813 316.1375 439.89688 315.575Q440.38126 315.0125 441.2875 314.27814Q442.69376 313.1219 443.17813 312.45Q443.67813 311.77814 443.67813 311.1844Q443.67813 310.5594 443.225 310.1375Q442.77188 309.7 442.05313 309.7Q441.2875 309.7 440.83438 310.15314Q440.38126 310.60626 440.36563 311.41876L439.2875 311.3094Q439.39688 310.09064 440.11563 309.46564Q440.85 308.825 442.08438 308.825Q443.31876 308.825 444.0375 309.5125Q444.75626 310.2 444.75626 311.21564Q444.75626 311.73126 444.5375 312.23126Q444.33438 312.71564 443.83438 313.27814Q443.35 313.825 442.225 314.77814Q441.27188 315.575 440.99063 315.8719Q440.725 316.15314 440.55313 316.4344L444.77188 316.4344ZM446.225 313.21564Q446.225 311.6844 446.5375 310.7625Q446.85 309.825 447.45938 309.325Q448.08438 308.825 449.02188 308.825Q449.70938 308.825 450.225 309.10626Q450.75626 309.3875 451.1 309.91876Q451.44376 310.4344 451.63126 311.1844Q451.81876 311.9344 451.81876 313.21564Q451.81876 314.73126 451.50626 315.65314Q451.20938 316.575 450.58438 317.09064Q449.975 317.59064 449.02188 317.59064Q447.7875 317.59064 447.06876 316.7Q446.225 315.6375 446.225 313.21564ZM447.30313 313.21564Q447.30313 315.325 447.80313 316.02814Q448.30313 316.73126 449.02188 316.73126Q449.75626 316.73126 450.24063 316.02814Q450.74063 315.325 450.74063 313.21564Q450.74063 311.09064 450.24063 310.40314Q449.75626 309.7 449.00626 309.7Q448.2875 309.7 447.85 310.3094Q447.30313 311.09064 447.30313 313.21564ZM453.225 313.21564Q453.225 311.6844 453.5375 310.7625Q453.85 309.825 454.45938 309.325Q455.08438 308.825 456.02188 308.825Q456.70938 308.825 457.225 309.10626Q457.75626 309.3875 458.1 309.91876Q458.44376 310.4344 458.63126 311.1844Q458.81876 311.9344 458.81876 313.21564Q458.81876 314.73126 458.50626 315.65314Q458.20938 316.575 457.58438 317.09064Q456.975 317.59064 456.02188 317.59064Q454.7875 317.59064 454.06876 316.7Q453.225 315.6375 453.225 313.21564ZM454.30313 313.21564Q454.30313 315.325 454.80313 316.02814Q455.30313 316.73126 456.02188 316.73126Q456.75626 316.73126 457.24063 316.02814Q457.74063 315.325 457.74063 313.21564Q457.74063 311.09064 457.24063 310.40314Q456.75626 309.7 456.00626 309.7Q455.2875 309.7 454.85 310.3094Q454.30313 311.09064 454.30313 313.21564ZM460.225 313.21564Q460.225 311.6844 460.5375 310.7625Q460.85 309.825 461.45938 309.325Q462.08438 308.825 463.02188 308.825Q463.70938 308.825 464.225 309.10626Q464.75626 309.3875 465.1 309.91876Q465.44376 310.4344 465.63126 311.1844Q465.81876 311.9344 465.81876 313.21564Q465.81876 314.73126 465.50626 315.65314Q465.20938 316.575 464.58438 317.09064Q463.975 317.59064 463.02188 317.59064Q461.7875 317.59064 461.06876 316.7Q460.225 315.6375 460.225 313.21564ZM461.30313 313.21564Q461.30313 315.325 461.80313 316.02814Q462.30313 316.73126 463.02188 316.73126Q463.75626 316.73126 464.24063 316.02814Q464.74063 315.325 464.74063 313.21564Q464.74063 311.09064 464.24063 310.40314Q463.75626 309.7 463.00626 309.7Q462.2875 309.7 461.85 310.3094Q461.30313 311.09064 461.30313 313.21564Z" fill-rule="nonzero"/><path fill="#000000" d="M573.4969 316.4344L573.4969 317.45L567.8094 317.45Q567.8094 317.075 567.9344 316.71564Q568.15314 316.1375 568.6219 315.575Q569.10626 315.0125 570.0125 314.27814Q571.41876 313.1219 571.90314 312.45Q572.40314 311.77814 572.40314 311.1844Q572.40314 310.5594 571.95 310.1375Q571.4969 309.7 570.77814 309.7Q570.0125 309.7 569.5594 310.15314Q569.10626 310.60626 569.09064 311.41876L568.0125 311.3094Q568.1219 310.09064 568.84064 309.46564Q569.575 308.825 570.8094 308.825Q572.04376 308.825 572.7625 309.5125Q573.48126 310.2 573.48126 311.21564Q573.48126 311.73126 573.2625 312.23126Q573.0594 312.71564 572.5594 313.27814Q572.075 313.825 570.95 314.77814Q569.9969 315.575 569.71564 315.8719Q569.45 316.15314 569.27814 316.4344L573.4969 316.4344ZM574.95 313.21564Q574.95 311.6844 575.2625 310.7625Q575.575 309.825 576.1844 309.325Q576.8094 308.825 577.7469 308.825Q578.4344 308.825 578.95 309.10626Q579.48126 309.3875 579.825 309.91876Q580.16876 310.4344 580.35626 311.1844Q580.54376 311.9344 580.54376 313.21564Q580.54376 314.73126 580.23126 315.65314Q579.9344 316.575 579.3094 317.09064Q578.7 317.59064 577.7469 317.59064Q576.5125 317.59064 575.79376 316.7Q574.95 315.6375 574.95 313.21564ZM576.02814 313.21564Q576.02814 315.325 576.52814 316.02814Q577.02814 316.73126 577.7469 316.73126Q578.48126 316.73126 578.96564 316.02814Q579.46564 315.325 579.46564 313.21564Q579.46564 311.09064 578.96564 310.40314Q578.48126 309.7 577.73126 309.7Q577.0125 309.7 576.575 310.3094Q576.02814 311.09064 576.02814 313.21564ZM585.91876 317.45L584.8719 317.45L584.8719 310.73126Q584.48126 311.09064 583.85626 311.46564Q583.2469 311.825 582.7625 311.9969L582.7625 310.98126Q583.6375 310.5594 584.29376 309.98126Q584.96564 309.3875 585.2469 308.825L585.91876 308.825L585.91876 317.45ZM588.95 313.21564Q588.95 311.6844 589.2625 310.7625Q589.575 309.825 590.1844 309.325Q590.8094 308.825 591.7469 308.825Q592.4344 308.825 592.95 309.10626Q593.48126 309.3875 593.825 309.91876Q594.16876 310.4344 594.35626 311.1844Q594.54376 311.9344 594.54376 313.21564Q594.54376 314.73126 594.23126 315.65314Q593.9344 316.575 593.3094 317.09064Q592.7 317.59064 591.7469 317.59064Q590.5125 317.59064 589.79376 316.7Q588.95 315.6375 588.95 313.21564ZM590.02814 313.21564Q590.02814 315.325 590.52814 316.02814Q591.02814 316.73126 591.7469 316.73126Q592.48126 316.73126 592.96564 316.02814Q593.46564 315.325 593.46564 313.21564Q593.46564 311.09064 592.96564 310.40314Q592.48126 309.7 591.73126 309.7Q591.0125 309.7 590.575 310.3094Q590.02814 311.09064 590.02814 313.21564Z" fill-rule="nonzero"/><path stroke="#4285f4" stroke-width="4.0" stroke-linecap="butt" d="M162.5 61.916668L174.5 61.916668" fill-rule="nonzero"/><path fill="#1a1a1a" d="M183.42188 65.916664L183.42188 57.322914L186.67188 57.322914Q187.51562 57.322914 187.96875 57.40104Q188.60938 57.510414 189.03125 57.80729Q189.46875 58.104164 189.71875 58.635414Q189.98438 59.166664 189.98438 59.80729Q189.98438 60.90104 189.28125 61.666664Q188.59375 62.416664 186.76562 62.416664L184.5625 62.416664L184.5625 65.916664L183.42188 65.916664ZM184.5625 61.416664L186.78125 61.416664Q187.89062 61.416664 188.34375 61.010414Q188.8125 60.58854 188.8125 59.83854Q188.8125 59.30729 188.53125 58.93229Q188.26562 58.541664 187.82812 58.416664Q187.53125 58.33854 186.76562 58.33854L184.5625 58.33854L184.5625 61.416664ZM190.90625 62.80729Q190.90625 61.072914 191.85938 60.24479Q192.65625 59.55729 193.8125 59.55729Q195.09375 59.55729 195.90625 60.40104Q196.73438 61.229164 196.73438 62.71354Q196.73438 63.916664 196.375 64.604164Q196.01562 65.291664 195.3125 65.68229Q194.625 66.05729 193.8125 66.05729Q192.51562 66.05729 191.70312 65.229164Q190.90625 64.385414 190.90625 62.80729ZM191.98438 62.80729Q191.98438 63.99479 192.5 64.58854Q193.03125 65.18229 193.8125 65.18229Q194.60938 65.18229 195.125 64.58854Q195.64062 63.99479 195.64062 62.77604Q195.64062 61.61979 195.10938 61.02604Q194.59375 60.43229 193.8125 60.43229Q193.03125 60.43229 192.5 61.02604Q191.98438 61.604164 191.98438 62.80729ZM198.29688 68.30729L198.29688 59.697914L199.25 59.697914L199.25 60.49479Q199.59375 60.02604 200.01562 59.791664Q200.45312 59.55729 201.0625 59.55729Q201.85938 59.55729 202.46875 59.96354Q203.07812 60.36979 203.375 61.11979Q203.6875 61.86979 203.6875 62.760414Q203.6875 63.71354 203.34375 64.479164Q203.01562 65.24479 202.35938 65.65104Q201.70312 66.05729 200.98438 66.05729Q200.45312 66.05729 200.03125 65.83854Q199.60938 65.604164 199.34375 65.27604L199.34375 68.30729L198.29688 68.30729ZM199.25 62.83854Q199.25 64.041664 199.73438 64.61979Q200.21875 65.18229 200.90625 65.18229Q201.60938 65.18229 202.10938 64.58854Q202.60938 63.99479 202.60938 62.74479Q202.60938 61.55729 202.125 60.979164Q201.64062 60.385414 200.95312 60.385414Q200.28125 60.385414 199.76562 61.010414Q199.25 61.635414 199.25 62.83854ZM209.375 65.916664L209.375 64.99479Q208.64062 66.05729 207.39062 66.05729Q206.84375 66.05729 206.35938 65.854164Q205.89062 65.635414 205.65625 65.322914Q205.42188 64.99479 205.32812 64.52604Q205.26562 64.229164 205.26562 63.541664L205.26562 59.697914L206.32812 59.697914L206.32812 63.15104Q206.32812 63.96354 206.39062 64.260414Q206.48438 64.666664 206.79688 64.916664Q207.125 65.15104 207.60938 65.15104Q208.07812 65.15104 208.48438 64.916664Q208.90625 64.666664 209.07812 64.24479Q209.26562 63.822914 209.26562 63.02604L209.26562 59.697914L210.3125 59.697914L210.3125 65.916664L209.375 65.916664ZM212.26562 65.916664L212.26562 57.322914L213.32812 57.322914L213.32812 65.916664L212.26562 65.916664ZM219.35938 65.15104Q218.76562 65.65104 218.21875 65.854164Q217.6875 66.05729 217.0625 66.05729Q216.03125 66.05729 215.48438 65.55729Q214.9375 65.05729 214.9375 64.27604Q214.9375 63.822914 215.14062 63.447914Q215.34375 63.05729 215.6875 62.83854Q216.03125 62.604164 216.45312 62.49479Q216.75 62.40104 217.39062 62.322914Q218.65625 62.18229 219.26562 61.96354Q219.26562 61.74479 219.26562 61.697914Q219.26562 61.041664 218.96875 60.77604Q218.5625 60.43229 217.76562 60.43229Q217.03125 60.43229 216.67188 60.697914Q216.3125 60.947914 216.14062 61.604164L215.10938 61.46354Q215.25 60.80729 215.57812 60.40104Q215.90625 59.99479 216.51562 59.77604Q217.125 59.55729 217.92188 59.55729Q218.71875 59.55729 219.21875 59.74479Q219.71875 59.93229 219.95312 60.21354Q220.1875 60.49479 220.28125 60.93229Q220.32812 61.197914 220.32812 61.90104L220.32812 63.30729Q220.32812 64.77604 220.39062 65.166664Q220.46875 65.55729 220.67188 65.916664L219.5625 65.916664Q219.40625 65.58854 219.35938 65.15104ZM219.26562 62.791664Q218.6875 63.02604 217.54688 63.197914Q216.89062 63.291664 216.625 63.416664Q216.35938 63.52604 216.20312 63.74479Q216.0625 63.96354 216.0625 64.24479Q216.0625 64.666664 216.375 64.947914Q216.70312 65.229164 217.3125 65.229164Q217.92188 65.229164 218.39062 64.96354Q218.875 64.697914 219.09375 64.229164Q219.26562 63.86979 219.26562 63.18229L219.26562 62.791664ZM226.35938 63.635414L227.39062 63.77604Q227.21875 64.83854 226.51562 65.447914Q225.8125 66.05729 224.79688 66.05729Q223.51562 66.05729 222.73438 65.229164Q221.96875 64.385414 221.96875 62.822914Q221.96875 61.822914 222.29688 61.072914Q222.64062 60.30729 223.3125 59.93229Q224.0 59.55729 224.8125 59.55729Q225.8125 59.55729 226.45312 60.072914Q227.10938 60.572914 227.29688 61.52604L226.26562 61.68229Q226.125 61.05729 225.75 60.74479Q225.375 60.416664 224.84375 60.416664Q224.04688 60.416664 223.54688 60.99479Q223.04688 61.55729 223.04688 62.791664Q223.04688 64.05729 223.53125 64.61979Q224.01562 65.18229 224.78125 65.18229Q225.40625 65.18229 225.8125 64.80729Q226.23438 64.43229 226.35938 63.635414ZM223.90625 66.697914L224.21875 65.65104L225.0 65.65104L224.79688 66.291664Q225.29688 66.33854 225.54688 66.58854Q225.8125 66.83854 225.8125 67.15104Q225.8125 67.58854 225.39062 67.916664Q224.96875 68.260414 224.10938 68.260414Q223.625 68.260414 223.26562 68.18229L223.32812 67.510414Q223.70312 67.52604 223.89062 67.52604Q224.4375 67.52604 224.65625 67.36979Q224.82812 67.260414 224.82812 67.08854Q224.82812 66.979164 224.75 66.90104Q224.6875 66.822914 224.5 66.760414Q224.32812 66.697914 223.90625 66.697914ZM232.35938 65.15104Q231.76562 65.65104 231.21875 65.854164Q230.6875 66.05729 230.0625 66.05729Q229.03125 66.05729 228.48438 65.55729Q227.9375 65.05729 227.9375 64.27604Q227.9375 63.822914 228.14062 63.447914Q228.34375 63.05729 228.6875 62.83854Q229.03125 62.604164 229.45312 62.49479Q229.75 62.40104 230.39062 62.322914Q231.65625 62.18229 232.26562 61.96354Q232.26562 61.74479 232.26562 61.697914Q232.26562 61.041664 231.96875 60.77604Q231.5625 60.43229 230.76562 60.43229Q230.03125 60.43229 229.67188 60.697914Q229.3125 60.947914 229.14062 61.604164L228.10938 61.46354Q228.25 60.80729 228.57812 60.40104Q228.90625 59.99479 229.51562 59.77604Q230.125 59.55729 230.92188 59.55729Q231.71875 59.55729 232.21875 59.74479Q232.71875 59.93229 232.95312 60.21354Q233.1875 60.49479 233.28125 60.93229Q233.32812 61.197914 233.32812 61.90104L233.32812 63.30729Q233.32812 64.77604 233.39062 65.166664Q233.46875 65.55729 233.67188 65.916664L232.5625 65.916664Q232.40625 65.58854 232.35938 65.15104ZM232.26562 62.791664Q231.6875 63.02604 230.54688 63.197914Q229.89062 63.291664 229.625 63.416664Q229.35938 63.52604 229.20312 63.74479Q229.0625 63.96354 229.0625 64.24479Q229.0625 64.666664 229.375 64.947914Q229.70312 65.229164 230.3125 65.229164Q230.92188 65.229164 231.39062 64.96354Q231.875 64.697914 232.09375 64.229164Q232.26562 63.86979 232.26562 63.18229L232.26562 62.791664ZM228.84375 58.77604Q228.82812 58.166664 229.17188 57.80729Q229.5 57.43229 230.03125 57.43229Q230.39062 57.43229 231.01562 57.760414Q231.35938 57.93229 231.5625 57.93229Q231.75 57.93229 231.84375 57.83854Q231.95312 57.729164 232.0 57.416664L232.76562 57.416664Q232.73438 58.08854 232.42188 58.43229Q232.10938 58.760414 231.60938 58.760414Q231.23438 58.760414 230.64062 58.43229Q230.25 58.21354 230.0625 58.21354Q229.85938 58.21354 229.73438 58.354164Q229.60938 58.49479 229.625 58.77604L228.84375 58.77604ZM234.90625 62.80729Q234.90625 61.072914 235.85938 60.24479Q236.65625 59.55729 237.8125 59.55729Q239.09375 59.55729 239.90625 60.40104Q240.73438 61.229164 240.73438 62.71354Q240.73438 63.916664 240.375 64.604164Q240.01562 65.291664 239.3125 65.68229Q238.625 66.05729 237.8125 66.05729Q236.51562 66.05729 235.70312 65.229164Q234.90625 64.385414 234.90625 62.80729ZM235.98438 62.80729Q235.98438 63.99479 236.5 64.58854Q237.03125 65.18229 237.8125 65.18229Q238.60938 65.18229 239.125 64.58854Q239.64062 63.99479 239.64062 62.77604Q239.64062 61.61979 239.10938 61.02604Q238.59375 60.43229 237.8125 60.43229Q237.03125 60.43229 236.5 61.02604Q235.98438 61.604164 235.98438 62.80729ZM244.84375 63.479164L245.875 63.33854Q245.90625 64.322914 246.23438 64.68229Q246.5625 65.041664 247.15625 65.041664Q247.57812 65.041664 247.89062 64.854164Q248.20312 64.65104 248.3125 64.322914Q248.4375 63.979164 248.4375 63.24479L248.4375 57.322914L249.5625 57.322914L249.5625 63.18229Q249.5625 64.260414 249.29688 64.854164Q249.04688 65.447914 248.48438 65.760414Q247.92188 66.05729 247.15625 66.05729Q246.03125 66.05729 245.42188 65.416664Q244.82812 64.760414 244.84375 63.479164ZM255.375 65.916664L255.375 64.99479Q254.64062 66.05729 253.39062 66.05729Q252.84375 66.05729 252.35938 65.854164Q251.89062 65.635414 251.65625 65.322914Q251.42188 64.99479 251.32812 64.52604Q251.26562 64.229164 251.26562 63.541664L251.26562 59.697914L252.32812 59.697914L252.32812 63.15104Q252.32812 63.96354 252.39062 64.260414Q252.48438 64.666664 252.79688 64.916664Q253.125 65.15104 253.60938 65.15104Q254.07812 65.15104 254.48438 64.916664Q254.90625 64.666664 255.07812 64.24479Q255.26562 63.822914 255.26562 63.02604L255.26562 59.697914L256.3125 59.697914L256.3125 65.916664L255.375 65.916664ZM262.35938 65.15104Q261.76562 65.65104 261.21875 65.854164Q260.6875 66.05729 260.0625 66.05729Q259.03125 66.05729 258.48438 65.55729Q257.9375 65.05729 257.9375 64.27604Q257.9375 63.822914 258.14062 63.447914Q258.34375 63.05729 258.6875 62.83854Q259.03125 62.604164 259.45312 62.49479Q259.75 62.40104 260.39062 62.322914Q261.65625 62.18229 262.26562 61.96354Q262.26562 61.74479 262.26562 61.697914Q262.26562 61.041664 261.96875 60.77604Q261.5625 60.43229 260.76562 60.43229Q260.03125 60.43229 259.67188 60.697914Q259.3125 60.947914 259.14062 61.604164L258.10938 61.46354Q258.25 60.80729 258.57812 60.40104Q258.90625 59.99479 259.51562 59.77604Q260.125 59.55729 260.92188 59.55729Q261.71875 59.55729 262.21875 59.74479Q262.71875 59.93229 262.95312 60.21354Q263.1875 60.49479 263.28125 60.93229Q263.32812 61.197914 263.32812 61.90104L263.32812 63.30729Q263.32812 64.77604 263.39062 65.166664Q263.46875 65.55729 263.67188 65.916664L262.5625 65.916664Q262.40625 65.58854 262.35938 65.15104ZM262.26562 62.791664Q261.6875 63.02604 260.54688 63.197914Q259.89062 63.291664 259.625 63.416664Q259.35938 63.52604 259.20312 63.74479Q259.0625 63.96354 259.0625 64.24479Q259.0625 64.666664 259.375 64.947914Q259.70312 65.229164 260.3125 65.229164Q260.92188 65.229164 261.39062 64.96354Q261.875 64.697914 262.09375 64.229164Q262.26562 63.86979 262.26562 63.18229L262.26562 62.791664ZM264.73438 65.916664L264.73438 65.05729L268.70312 60.510414Q268.01562 60.541664 267.5 60.541664L264.96875 60.541664L264.96875 59.697914L270.0625 59.697914L270.0625 60.385414L266.6875 64.33854L266.03125 65.05729Q266.75 65.010414 267.35938 65.010414L270.25 65.010414L270.25 65.916664L264.73438 65.916664ZM274.54688 63.916664L275.64062 64.041664Q275.39062 64.99479 274.6875 65.52604Q273.98438 66.05729 272.90625 66.05729Q271.54688 66.05729 270.73438 65.21354Q269.9375 64.36979 269.9375 62.854164Q269.9375 61.291664 270.75 60.43229Q271.5625 59.55729 272.84375 59.55729Q274.09375 59.55729 274.875 60.40104Q275.67188 61.24479 275.67188 62.791664Q275.67188 62.885414 275.67188 63.072914L271.03125 63.072914Q271.09375 64.104164 271.60938 64.65104Q272.125 65.18229 272.90625 65.18229Q273.48438 65.18229 273.89062 64.885414Q274.3125 64.572914 274.54688 63.916664ZM271.09375 62.21354L274.5625 62.21354Q274.5 61.416664 274.17188 61.02604Q273.65625 60.416664 272.85938 60.416664Q272.125 60.416664 271.625 60.90104Q271.14062 61.385414 271.09375 62.21354ZM277.29688 58.541664L277.29688 57.322914L278.35938 57.322914L278.35938 58.541664L277.29688 58.541664ZM277.29688 65.916664L277.29688 59.697914L278.35938 59.697914L278.35938 65.916664L277.29688 65.916664ZM280.28125 65.916664L280.28125 59.697914L281.23438 59.697914L281.23438 60.635414Q281.59375 59.979164 281.89062 59.77604Q282.20312 59.55729 282.57812 59.55729Q283.10938 59.55729 283.65625 59.885414L283.29688 60.86979Q282.90625 60.635414 282.53125 60.635414Q282.17188 60.635414 281.89062 60.854164Q281.625 61.05729 281.51562 61.43229Q281.32812 61.99479 281.32812 62.65104L281.32812 65.916664L280.28125 65.916664ZM283.90625 62.80729Q283.90625 61.072914 284.85938 60.24479Q285.65625 59.55729 286.8125 59.55729Q288.09375 59.55729 288.90625 60.40104Q289.73438 61.229164 289.73438 62.71354Q289.73438 63.916664 289.375 64.604164Q289.01562 65.291664 288.3125 65.68229Q287.625 66.05729 286.8125 66.05729Q285.51562 66.05729 284.70312 65.229164Q283.90625 64.385414 283.90625 62.80729ZM284.98438 62.80729Q284.98438 63.99479 285.5 64.58854Q286.03125 65.18229 286.8125 65.18229Q287.60938 65.18229 288.125 64.58854Q288.64062 63.99479 288.64062 62.77604Q288.64062 61.61979 288.10938 61.02604Q287.59375 60.43229 286.8125 60.43229Q286.03125 60.43229 285.5 61.02604Q284.98438 61.604164 284.98438 62.80729Z" fill-rule="nonzero"/><path stroke="#ea4335" stroke-width="4.0" stroke-linecap="butt" d="M306.5 61.916668L318.5 61.916668" fill-rule="nonzero"/><path fill="#1a1a1a" d="M327.42188 65.916664L327.42188 57.322914L330.67188 57.322914Q331.51562 57.322914 331.96875 57.40104Q332.60938 57.510414 333.03125 57.80729Q333.46875 58.104164 333.71875 58.635414Q333.98438 59.166664 333.98438 59.80729Q333.98438 60.90104 333.28125 61.666664Q332.59375 62.416664 330.76562 62.416664L328.5625 62.416664L328.5625 65.916664L327.42188 65.916664ZM328.5625 61.416664L330.78125 61.416664Q331.89062 61.416664 332.34375 61.010414Q332.8125 60.58854 332.8125 59.83854Q332.8125 59.30729 332.53125 58.93229Q332.26562 58.541664 331.82812 58.416664Q331.53125 58.33854 330.76562 58.33854L328.5625 58.33854L328.5625 61.416664ZM334.90625 62.80729Q334.90625 61.072914 335.85938 60.24479Q336.65625 59.55729 337.8125 59.55729Q339.09375 59.55729 339.90625 60.40104Q340.73438 61.229164 340.73438 62.71354Q340.73438 63.916664 340.375 64.604164Q340.01562 65.291664 339.3125 65.68229Q338.625 66.05729 337.8125 66.05729Q336.51562 66.05729 335.70312 65.229164Q334.90625 64.385414 334.90625 62.80729ZM335.98438 62.80729Q335.98438 63.99479 336.5 64.58854Q337.03125 65.18229 337.8125 65.18229Q338.60938 65.18229 339.125 64.58854Q339.64062 63.99479 339.64062 62.77604Q339.64062 61.61979 339.10938 61.02604Q338.59375 60.43229 337.8125 60.43229Q337.03125 60.43229 336.5 61.02604Q335.98438 61.604164 335.98438 62.80729ZM342.29688 68.30729L342.29688 59.697914L343.25 59.697914L343.25 60.49479Q343.59375 60.02604 344.01562 59.791664Q344.45312 59.55729 345.0625 59.55729Q345.85938 59.55729 346.46875 59.96354Q347.07812 60.36979 347.375 61.11979Q347.6875 61.86979 347.6875 62.760414Q347.6875 63.71354 347.34375 64.479164Q347.01562 65.24479 346.35938 65.65104Q345.70312 66.05729 344.98438 66.05729Q344.45312 66.05729 344.03125 65.83854Q343.60938 65.604164 343.34375 65.27604L343.34375 68.30729L342.29688 68.30729ZM343.25 62.83854Q343.25 64.041664 343.73438 64.61979Q344.21875 65.18229 344.90625 65.18229Q345.60938 65.18229 346.10938 64.58854Q346.60938 63.99479 346.60938 62.74479Q346.60938 61.55729 346.125 60.979164Q345.64062 60.385414 344.95312 60.385414Q344.28125 60.385414 343.76562 61.010414Q343.25 61.635414 343.25 62.83854ZM353.375 65.916664L353.375 64.99479Q352.64062 66.05729 351.39062 66.05729Q350.84375 66.05729 350.35938 65.854164Q349.89062 65.635414 349.65625 65.322914Q349.42188 64.99479 349.32812 64.52604Q349.26562 64.229164 349.26562 63.541664L349.26562 59.697914L350.32812 59.697914L350.32812 63.15104Q350.32812 63.96354 350.39062 64.260414Q350.48438 64.666664 350.79688 64.916664Q351.125 65.15104 351.60938 65.15104Q352.07812 65.15104 352.48438 64.916664Q352.90625 64.666664 353.07812 64.24479Q353.26562 63.822914 353.26562 63.02604L353.26562 59.697914L354.3125 59.697914L354.3125 65.916664L353.375 65.916664ZM356.26562 65.916664L356.26562 57.322914L357.32812 57.322914L357.32812 65.916664L356.26562 65.916664ZM363.35938 65.15104Q362.76562 65.65104 362.21875 65.854164Q361.6875 66.05729 361.0625 66.05729Q360.03125 66.05729 359.48438 65.55729Q358.9375 65.05729 358.9375 64.27604Q358.9375 63.822914 359.14062 63.447914Q359.34375 63.05729 359.6875 62.83854Q360.03125 62.604164 360.45312 62.49479Q360.75 62.40104 361.39062 62.322914Q362.65625 62.18229 363.26562 61.96354Q363.26562 61.74479 363.26562 61.697914Q363.26562 61.041664 362.96875 60.77604Q362.5625 60.43229 361.76562 60.43229Q361.03125 60.43229 360.67188 60.697914Q360.3125 60.947914 360.14062 61.604164L359.10938 61.46354Q359.25 60.80729 359.57812 60.40104Q359.90625 59.99479 360.51562 59.77604Q361.125 59.55729 361.92188 59.55729Q362.71875 59.55729 363.21875 59.74479Q363.71875 59.93229 363.95312 60.21354Q364.1875 60.49479 364.28125 60.93229Q364.32812 61.197914 364.32812 61.90104L364.32812 63.30729Q364.32812 64.77604 364.39062 65.166664Q364.46875 65.55729 364.67188 65.916664L363.5625 65.916664Q363.40625 65.58854 363.35938 65.15104ZM363.26562 62.791664Q362.6875 63.02604 361.54688 63.197914Q360.89062 63.291664 360.625 63.416664Q360.35938 63.52604 360.20312 63.74479Q360.0625 63.96354 360.0625 64.24479Q360.0625 64.666664 360.375 64.947914Q360.70312 65.229164 361.3125 65.229164Q361.92188 65.229164 362.39062 64.96354Q362.875 64.697914 363.09375 64.229164Q363.26562 63.86979 363.26562 63.18229L363.26562 62.791664ZM370.35938 63.635414L371.39062 63.77604Q371.21875 64.83854 370.51562 65.447914Q369.8125 66.05729 368.79688 66.05729Q367.51562 66.05729 366.73438 65.229164Q365.96875 64.385414 365.96875 62.822914Q365.96875 61.822914 366.29688 61.072914Q366.64062 60.30729 367.3125 59.93229Q368.0 59.55729 368.8125 59.55729Q369.8125 59.55729 370.45312 60.072914Q371.10938 60.572914 371.29688 61.52604L370.26562 61.68229Q370.125 61.05729 369.75 60.74479Q369.375 60.416664 368.84375 60.416664Q368.04688 60.416664 367.54688 60.99479Q367.04688 61.55729 367.04688 62.791664Q367.04688 64.05729 367.53125 64.61979Q368.01562 65.18229 368.78125 65.18229Q369.40625 65.18229 369.8125 64.80729Q370.23438 64.43229 370.35938 63.635414ZM367.90625 66.697914L368.21875 65.65104L369.0 65.65104L368.79688 66.291664Q369.29688 66.33854 369.54688 66.58854Q369.8125 66.83854 369.8125 67.15104Q369.8125 67.58854 369.39062 67.916664Q368.96875 68.260414 368.10938 68.260414Q367.625 68.260414 367.26562 68.18229L367.32812 67.510414Q367.70312 67.52604 367.89062 67.52604Q368.4375 67.52604 368.65625 67.36979Q368.82812 67.260414 368.82812 67.08854Q368.82812 66.979164 368.75 66.90104Q368.6875 66.822914 368.5 66.760414Q368.32812 66.697914 367.90625 66.697914ZM376.35938 65.15104Q375.76562 65.65104 375.21875 65.854164Q374.6875 66.05729 374.0625 66.05729Q373.03125 66.05729 372.48438 65.55729Q371.9375 65.05729 371.9375 64.27604Q371.9375 63.822914 372.14062 63.447914Q372.34375 63.05729 372.6875 62.83854Q373.03125 62.604164 373.45312 62.49479Q373.75 62.40104 374.39062 62.322914Q375.65625 62.18229 376.26562 61.96354Q376.26562 61.74479 376.26562 61.697914Q376.26562 61.041664 375.96875 60.77604Q375.5625 60.43229 374.76562 60.43229Q374.03125 60.43229 373.67188 60.697914Q373.3125 60.947914 373.14062 61.604164L372.10938 61.46354Q372.25 60.80729 372.57812 60.40104Q372.90625 59.99479 373.51562 59.77604Q374.125 59.55729 374.92188 59.55729Q375.71875 59.55729 376.21875 59.74479Q376.71875 59.93229 376.95312 60.21354Q377.1875 60.49479 377.28125 60.93229Q377.32812 61.197914 377.32812 61.90104L377.32812 63.30729Q377.32812 64.77604 377.39062 65.166664Q377.46875 65.55729 377.67188 65.916664L376.5625 65.916664Q376.40625 65.58854 376.35938 65.15104ZM376.26562 62.791664Q375.6875 63.02604 374.54688 63.197914Q373.89062 63.291664 373.625 63.416664Q373.35938 63.52604 373.20312 63.74479Q373.0625 63.96354 373.0625 64.24479Q373.0625 64.666664 373.375 64.947914Q373.70312 65.229164 374.3125 65.229164Q374.92188 65.229164 375.39062 64.96354Q375.875 64.697914 376.09375 64.229164Q376.26562 63.86979 376.26562 63.18229L376.26562 62.791664ZM372.84375 58.77604Q372.82812 58.166664 373.17188 57.80729Q373.5 57.43229 374.03125 57.43229Q374.39062 57.43229 375.01562 57.760414Q375.35938 57.93229 375.5625 57.93229Q375.75 57.93229 375.84375 57.83854Q375.95312 57.729164 376.0 57.416664L376.76562 57.416664Q376.73438 58.08854 376.42188 58.43229Q376.10938 58.760414 375.60938 58.760414Q375.23438 58.760414 374.64062 58.43229Q374.25 58.21354 374.0625 58.21354Q373.85938 58.21354 373.73438 58.354164Q373.60938 58.49479 373.625 58.77604L372.84375 58.77604ZM378.90625 62.80729Q378.90625 61.072914 379.85938 60.24479Q380.65625 59.55729 381.8125 59.55729Q383.09375 59.55729 383.90625 60.40104Q384.73438 61.229164 384.73438 62.71354Q384.73438 63.916664 384.375 64.604164Q384.01562 65.291664 383.3125 65.68229Q382.625 66.05729 381.8125 66.05729Q380.51562 66.05729 379.70312 65.229164Q378.90625 64.385414 378.90625 62.80729ZM379.98438 62.80729Q379.98438 63.99479 380.5 64.58854Q381.03125 65.18229 381.8125 65.18229Q382.60938 65.18229 383.125 64.58854Q383.64062 63.99479 383.64062 62.77604Q383.64062 61.61979 383.10938 61.02604Q382.59375 60.43229 381.8125 60.43229Q381.03125 60.43229 380.5 61.02604Q379.98438 61.604164 379.98438 62.80729ZM389.42188 65.916664L389.42188 57.322914L392.67188 57.322914Q393.51562 57.322914 393.96875 57.40104Q394.60938 57.510414 395.03125 57.80729Q395.46875 58.104164 395.71875 58.635414Q395.98438 59.166664 395.98438 59.80729Q395.98438 60.90104 395.28125 61.666664Q394.59375 62.416664 392.76562 62.416664L390.5625 62.416664L390.5625 65.916664L389.42188 65.916664ZM390.5625 61.416664L392.78125 61.416664Q393.89062 61.416664 394.34375 61.010414Q394.8125 60.58854 394.8125 59.83854Q394.8125 59.30729 394.53125 58.93229Q394.26562 58.541664 393.82812 58.416664Q393.53125 58.33854 392.76562 58.33854L390.5625 58.33854L390.5625 61.416664ZM401.54688 63.916664L402.64062 64.041664Q402.39062 64.99479 401.6875 65.52604Q400.98438 66.05729 399.90625 66.05729Q398.54688 66.05729 397.73438 65.21354Q396.9375 64.36979 396.9375 62.854164Q396.9375 61.291664 397.75 60.43229Q398.5625 59.55729 399.84375 59.55729Q401.09375 59.55729 401.875 60.40104Q402.67188 61.24479 402.67188 62.791664Q402.67188 62.885414 402.67188 63.072914L398.03125 63.072914Q398.09375 64.104164 398.60938 64.65104Q399.125 65.18229 399.90625 65.18229Q400.48438 65.18229 400.89062 64.885414Q401.3125 64.572914 401.54688 63.916664ZM398.09375 62.21354L401.5625 62.21354Q401.5 61.416664 401.17188 61.02604Q400.65625 60.416664 399.85938 60.416664Q399.125 60.416664 398.625 60.90104Q398.14062 61.385414 398.09375 62.21354ZM406.59375 64.979164L406.75 65.90104Q406.29688 65.99479 405.95312 65.99479Q405.375 65.99479 405.0625 65.822914Q404.75 65.635414 404.60938 65.33854Q404.48438 65.041664 404.48438 64.08854L404.48438 60.510414L403.71875 60.510414L403.71875 59.697914L404.48438 59.697914L404.48438 58.15104L405.53125 57.52604L405.53125 59.697914L406.59375 59.697914L406.59375 60.510414L405.53125 60.510414L405.53125 64.15104Q405.53125 64.604164 405.57812 64.729164Q405.64062 64.854164 405.76562 64.93229Q405.89062 65.010414 406.125 65.010414Q406.3125 65.010414 406.59375 64.979164ZM407.28125 65.916664L407.28125 59.697914L408.23438 59.697914L408.23438 60.635414Q408.59375 59.979164 408.89062 59.77604Q409.20312 59.55729 409.57812 59.55729Q410.10938 59.55729 410.65625 59.885414L410.29688 60.86979Q409.90625 60.635414 409.53125 60.635414Q409.17188 60.635414 408.89062 60.854164Q408.625 61.05729 408.51562 61.43229Q408.32812 61.99479 408.32812 62.65104L408.32812 65.916664L407.28125 65.916664ZM410.90625 62.80729Q410.90625 61.072914 411.85938 60.24479Q412.65625 59.55729 413.8125 59.55729Q415.09375 59.55729 415.90625 60.40104Q416.73438 61.229164 416.73438 62.71354Q416.73438 63.916664 416.375 64.604164Q416.01562 65.291664 415.3125 65.68229Q414.625 66.05729 413.8125 66.05729Q412.51562 66.05729 411.70312 65.229164Q410.90625 64.385414 410.90625 62.80729ZM411.98438 62.80729Q411.98438 63.99479 412.5 64.58854Q413.03125 65.18229 413.8125 65.18229Q414.60938 65.18229 415.125 64.58854Q415.64062 63.99479 415.64062 62.77604Q415.64062 61.61979 415.10938 61.02604Q414.59375 60.43229 413.8125 60.43229Q413.03125 60.43229 412.5 61.02604Q411.98438 61.604164 411.98438 62.80729ZM418.26562 65.916664L418.26562 57.322914L419.32812 57.322914L419.32812 65.916664L418.26562 65.916664ZM421.29688 58.541664L421.29688 57.322914L422.35938 57.322914L422.35938 58.541664L421.29688 58.541664ZM421.29688 65.916664L421.29688 59.697914L422.35938 59.697914L422.35938 65.916664L421.29688 65.916664ZM424.29688 65.916664L424.29688 59.697914L425.23438 59.697914L425.23438 60.572914Q425.92188 59.55729 427.21875 59.55729Q427.78125 59.55729 428.25 59.760414Q428.73438 59.96354 428.96875 60.291664Q429.20312 60.61979 429.29688 61.05729Q429.34375 61.354164 429.34375 62.08854L429.34375 65.916664L428.29688 65.916664L428.29688 62.135414Q428.29688 61.479164 428.17188 61.166664Q428.04688 60.854164 427.73438 60.666664Q427.42188 60.46354 427.0 60.46354Q426.32812 60.46354 425.82812 60.90104Q425.34375 61.322914 425.34375 62.510414L425.34375 65.916664L424.29688 65.916664ZM435.35938 65.15104Q434.76562 65.65104 434.21875 65.854164Q433.6875 66.05729 433.0625 66.05729Q432.03125 66.05729 431.48438 65.55729Q430.9375 65.05729 430.9375 64.27604Q430.9375 63.822914 431.14062 63.447914Q431.34375 63.05729 431.6875 62.83854Q432.03125 62.604164 432.45312 62.49479Q432.75 62.40104 433.39062 62.322914Q434.65625 62.18229 435.26562 61.96354Q435.26562 61.74479 435.26562 61.697914Q435.26562 61.041664 434.96875 60.77604Q434.5625 60.43229 433.76562 60.43229Q433.03125 60.43229 432.67188 60.697914Q432.3125 60.947914 432.14062 61.604164L431.10938 61.46354Q431.25 60.80729 431.57812 60.40104Q431.90625 59.99479 432.51562 59.77604Q433.125 59.55729 433.92188 59.55729Q434.71875 59.55729 435.21875 59.74479Q435.71875 59.93229 435.95312 60.21354Q436.1875 60.49479 436.28125 60.93229Q436.32812 61.197914 436.32812 61.90104L436.32812 63.30729Q436.32812 64.77604 436.39062 65.166664Q436.46875 65.55729 436.67188 65.916664L435.5625 65.916664Q435.40625 65.58854 435.35938 65.15104ZM435.26562 62.791664Q434.6875 63.02604 433.54688 63.197914Q432.89062 63.291664 432.625 63.416664Q432.35938 63.52604 432.20312 63.74479Q432.0625 63.96354 432.0625 64.24479Q432.0625 64.666664 432.375 64.947914Q432.70312 65.229164 433.3125 65.229164Q433.92188 65.229164 434.39062 64.96354Q434.875 64.697914 435.09375 64.229164Q435.26562 63.86979 435.26562 63.18229L435.26562 62.791664Z" fill-rule="nonzero"/><path fill="#757575" d="M20.096874 37.55L20.096874 23.2375L25.4875 23.2375Q26.925 23.2375 27.675 23.3625Q28.721874 23.55 29.440624 24.05Q30.159374 24.534374 30.58125 25.425Q31.01875 26.315624 31.01875 27.378124Q31.01875 29.20625 29.846874 30.471874Q28.690624 31.721874 25.659374 31.721874L21.9875 31.721874L21.9875 37.55L20.096874 37.55ZM21.9875 30.034374L25.690624 30.034374Q27.51875 30.034374 28.284374 29.3625Q29.065624 28.675 29.065624 27.425Q29.065624 26.534374 28.6125 25.89375Q28.159374 25.253124 27.425 25.05Q26.940624 24.925 25.64375 24.925L21.9875 24.925L21.9875 30.034374ZM32.221874 32.3625Q32.221874 29.4875 33.815624 28.096874Q35.159374 26.940624 37.08125 26.940624Q39.221874 26.940624 40.565624 28.346874Q41.925 29.753124 41.925 32.221874Q41.925 34.221874 41.33125 35.378124Q40.7375 36.51875 39.58125 37.159374Q38.440624 37.784374 37.08125 37.784374Q34.89375 37.784374 33.55 36.39375Q32.221874 34.9875 32.221874 32.3625ZM34.01875 32.3625Q34.01875 34.3625 34.878124 35.346874Q35.753124 36.33125 37.08125 36.33125Q38.39375 36.33125 39.253124 35.346874Q40.128124 34.346874 40.128124 32.3Q40.128124 30.378124 39.253124 29.39375Q38.378124 28.39375 37.08125 28.39375Q35.753124 28.39375 34.878124 29.39375Q34.01875 30.378124 34.01875 32.3625ZM43.8625 41.51875L43.8625 27.175L45.471874 27.175L45.471874 28.51875Q46.034374 27.7375 46.7375 27.346874Q47.45625 26.940624 48.471874 26.940624Q49.8 26.940624 50.815624 27.628124Q51.83125 28.315624 52.346874 29.565624Q52.878124 30.8 52.878124 32.284374Q52.878124 33.878124 52.3 35.159374Q51.7375 36.425 50.64375 37.1125Q49.55 37.784374 48.346874 37.784374Q47.471874 37.784374 46.76875 37.409374Q46.08125 37.034374 45.628124 36.471874L45.628124 41.51875L43.8625 41.51875ZM45.45625 32.425Q45.45625 34.425 46.26875 35.378124Q47.08125 36.33125 48.2375 36.33125Q49.409374 36.33125 50.2375 35.346874Q51.08125 34.3625 51.08125 32.26875Q51.08125 30.3 50.253124 29.315624Q49.440624 28.315624 48.315624 28.315624Q47.190624 28.315624 46.315624 29.378124Q45.45625 30.425 45.45625 32.425ZM61.659374 37.55L61.659374 36.01875Q60.45625 37.784374 58.378124 37.784374Q57.45625 37.784374 56.659374 37.440624Q55.8625 37.08125 55.471874 36.55Q55.096874 36.01875 54.940624 35.2375Q54.83125 34.721874 54.83125 33.596874L54.83125 27.175L56.58125 27.175L56.58125 32.925Q56.58125 34.3 56.690624 34.784374Q56.8625 35.471874 57.39375 35.878124Q57.940624 36.26875 58.721874 36.26875Q59.51875 36.26875 60.20625 35.8625Q60.909374 35.45625 61.190624 34.76875Q61.4875 34.065624 61.4875 32.7375L61.4875 27.175L63.2375 27.175L63.2375 37.55L61.659374 37.55ZM64.83125 37.55L64.83125 23.2375L66.58125 23.2375L66.58125 37.55L64.83125 37.55ZM75.64375 36.26875Q74.65938 37.096874 73.75313 37.440624Q72.84688 37.784374 71.81563 37.784374Q70.1125 37.784374 69.19063 36.95625Q68.26875 36.1125 68.26875 34.815624Q68.26875 34.05 68.6125 33.425Q68.97188 32.8 69.53438 32.425Q70.09688 32.034374 70.8 31.83125Q71.31563 31.70625 72.3625 31.565624Q74.4875 31.315624 75.4875 30.971874Q75.50313 30.6125 75.50313 30.503124Q75.50313 29.440624 75.00313 28.9875Q74.33125 28.39375 73.00313 28.39375Q71.75313 28.39375 71.15938 28.83125Q70.58125 29.26875 70.3 30.378124L68.58125 30.14375Q68.81563 29.034374 69.34688 28.3625Q69.87813 27.675 70.89375 27.315624Q71.90938 26.940624 73.25313 26.940624Q74.58125 26.940624 75.40938 27.253124Q76.2375 27.565624 76.62813 28.05Q77.01875 28.51875 77.175 29.2375Q77.26875 29.690624 77.26875 30.8625L77.26875 33.20625Q77.26875 35.659374 77.37813 36.315624Q77.4875 36.95625 77.83125 37.55L75.9875 37.55Q75.72188 37.003124 75.64375 36.26875ZM75.4875 32.346874Q74.53438 32.7375 72.6125 33.003124Q71.53438 33.159374 71.08125 33.3625Q70.64375 33.55 70.39375 33.925Q70.14375 34.3 70.14375 34.76875Q70.14375 35.471874 70.675 35.940624Q71.20625 36.409374 72.2375 36.409374Q73.25313 36.409374 74.03438 35.971874Q74.83125 35.51875 75.20625 34.753124Q75.4875 34.14375 75.4875 32.9875L75.4875 32.346874ZM86.64375 33.753124L88.3625 33.971874Q88.08125 35.76875 86.90938 36.784374Q85.75313 37.784374 84.05 37.784374Q81.925 37.784374 80.62813 36.39375Q79.33125 35.003124 79.33125 32.409374Q79.33125 30.721874 79.87813 29.471874Q80.44063 28.20625 81.58125 27.58125Q82.72188 26.940624 84.06563 26.940624Q85.75313 26.940624 86.81563 27.8Q87.89375 28.659374 88.20625 30.221874L86.4875 30.4875Q86.25313 29.440624 85.62813 28.925Q85.00313 28.39375 84.12813 28.39375Q82.8 28.39375 81.97188 29.346874Q81.14375 30.3 81.14375 32.346874Q81.14375 34.440624 81.94063 35.39375Q82.7375 36.33125 84.03438 36.33125Q85.06563 36.33125 85.75313 35.70625Q86.45625 35.065624 86.64375 33.753124ZM82.56563 38.846874L83.08125 37.128124L84.37813 37.128124L84.06563 38.175Q84.89375 38.26875 85.31563 38.675Q85.7375 39.096874 85.7375 39.596874Q85.7375 40.33125 85.03438 40.89375Q84.33125 41.45625 82.90938 41.45625Q82.1125 41.45625 81.50313 41.346874L81.6125 40.20625Q82.2375 40.2375 82.53438 40.2375Q83.44063 40.2375 83.81563 39.9875Q84.09688 39.784374 84.09688 39.503124Q84.09688 39.33125 83.9875 39.190624Q83.87813 39.05 83.56563 38.95625Q83.26875 38.8625 82.56563 38.846874ZM96.64375 36.26875Q95.65938 37.096874 94.75313 37.440624Q93.84688 37.784374 92.81563 37.784374Q91.1125 37.784374 90.19063 36.95625Q89.26875 36.1125 89.26875 34.815624Q89.26875 34.05 89.6125 33.425Q89.97188 32.8 90.53438 32.425Q91.09688 32.034374 91.8 31.83125Q92.31563 31.70625 93.3625 31.565624Q95.4875 31.315624 96.4875 30.971874Q96.50313 30.6125 96.50313 30.503124Q96.50313 29.440624 96.00313 28.9875Q95.33125 28.39375 94.00313 28.39375Q92.75313 28.39375 92.15938 28.83125Q91.58125 29.26875 91.3 30.378124L89.58125 30.14375Q89.81563 29.034374 90.34688 28.3625Q90.87813 27.675 91.89375 27.315624Q92.90938 26.940624 94.25313 26.940624Q95.58125 26.940624 96.40938 27.253124Q97.2375 27.565624 97.62813 28.05Q98.01875 28.51875 98.175 29.2375Q98.26875 29.690624 98.26875 30.8625L98.26875 33.20625Q98.26875 35.659374 98.37813 36.315624Q98.4875 36.95625 98.83125 37.55L96.9875 37.55Q96.72188 37.003124 96.64375 36.26875ZM96.4875 32.346874Q95.53438 32.7375 93.6125 33.003124Q92.53438 33.159374 92.08125 33.3625Q91.64375 33.55 91.39375 33.925Q91.14375 34.3 91.14375 34.76875Q91.14375 35.471874 91.675 35.940624Q92.20625 36.409374 93.2375 36.409374Q94.25313 36.409374 95.03438 35.971874Q95.83125 35.51875 96.20625 34.753124Q96.4875 34.14375 96.4875 32.9875L96.4875 32.346874ZM90.78438 25.64375Q90.78438 24.628124 91.34688 24.01875Q91.90938 23.425 92.76875 23.425Q93.37813 23.425 94.425 23.940624Q95.00313 24.2375 95.34688 24.2375Q95.65938 24.2375 95.81563 24.065624Q95.9875 23.89375 96.05 23.39375L97.33125 23.39375Q97.3 24.503124 96.76875 25.065624Q96.2375 25.6125 95.40938 25.6125Q94.8 25.6125 93.78438 25.065624Q93.12813 24.721874 92.83125 24.721874Q92.50313 24.721874 92.3 24.95625Q92.08125 25.190624 92.09688 25.64375L90.78438 25.64375ZM100.22188 32.3625Q100.22188 29.4875 101.81563 28.096874Q103.15938 26.940624 105.08125 26.940624Q107.22188 26.940624 108.56563 28.346874Q109.925 29.753124 109.925 32.221874Q109.925 34.221874 109.33125 35.378124Q108.7375 36.51875 107.58125 37.159374Q106.44063 37.784374 105.08125 37.784374Q102.89375 37.784374 101.55 36.39375Q100.22188 34.9875 100.22188 32.3625ZM102.01875 32.3625Q102.01875 34.3625 102.87813 35.346874Q103.75313 36.33125 105.08125 36.33125Q106.39375 36.33125 107.25313 35.346874Q108.12813 34.346874 108.12813 32.3Q108.12813 30.378124 107.25313 29.39375Q106.37813 28.39375 105.08125 28.39375Q103.75313 28.39375 102.87813 29.39375Q102.01875 30.378124 102.01875 32.3625ZM117.12813 33.4875L118.83125 33.253124Q118.90938 34.89375 119.45625 35.503124Q120.00313 36.096874 120.97188 36.096874Q121.675 36.096874 122.19063 35.784374Q122.70625 35.45625 122.89375 34.89375Q123.09688 34.33125 123.09688 33.096874L123.09688 23.2375L125.00313 23.2375L125.00313 32.9875Q125.00313 34.784374 124.56563 35.76875Q124.12813 36.753124 123.175 37.284374Q122.2375 37.8 120.97188 37.8Q119.09688 37.8 118.08125 36.721874Q117.08125 35.628124 117.12813 33.4875ZM134.65938 37.55L134.65938 36.01875Q133.45625 37.784374 131.37813 37.784374Q130.45625 37.784374 129.65938 37.440624Q128.8625 37.08125 128.47188 36.55Q128.09688 36.01875 127.94063 35.2375Q127.83125 34.721874 127.83125 33.596874L127.83125 27.175L129.58125 27.175L129.58125 32.925Q129.58125 34.3 129.69063 34.784374Q129.8625 35.471874 130.39375 35.878124Q130.94063 36.26875 131.72188 36.26875Q132.51875 36.26875 133.20625 35.8625Q133.90938 35.45625 134.19063 34.76875Q134.4875 34.065624 134.4875 32.7375L134.4875 27.175L136.2375 27.175L136.2375 37.55L134.65938 37.55ZM144.64375 36.26875Q143.65938 37.096874 142.75313 37.440624Q141.84688 37.784374 140.81563 37.784374Q139.1125 37.784374 138.19063 36.95625Q137.26875 36.1125 137.26875 34.815624Q137.26875 34.05 137.6125 33.425Q137.97188 32.8 138.53438 32.425Q139.09688 32.034374 139.8 31.83125Q140.31563 31.70625 141.3625 31.565624Q143.4875 31.315624 144.4875 30.971874Q144.50313 30.6125 144.50313 30.503124Q144.50313 29.440624 144.00313 28.9875Q143.33125 28.39375 142.00313 28.39375Q140.75313 28.39375 140.15938 28.83125Q139.58125 29.26875 139.3 30.378124L137.58125 30.14375Q137.81563 29.034374 138.34688 28.3625Q138.87813 27.675 139.89375 27.315624Q140.90938 26.940624 142.25313 26.940624Q143.58125 26.940624 144.40938 27.253124Q145.2375 27.565624 145.62813 28.05Q146.01875 28.51875 146.175 29.2375Q146.26875 29.690624 146.26875 30.8625L146.26875 33.20625Q146.26875 35.659374 146.37813 36.315624Q146.4875 36.95625 146.83125 37.55L144.9875 37.55Q144.72188 37.003124 144.64375 36.26875ZM144.4875 32.346874Q143.53438 32.7375 141.6125 33.003124Q140.53438 33.159374 140.08125 33.3625Q139.64375 33.55 139.39375 33.925Q139.14375 34.3 139.14375 34.76875Q139.14375 35.471874 139.675 35.940624Q140.20625 36.409374 141.2375 36.409374Q142.25313 36.409374 143.03438 35.971874Q143.83125 35.51875 144.20625 34.753124Q144.4875 34.14375 144.4875 32.9875L144.4875 32.346874ZM147.94063 37.55L147.94063 36.128124L154.55 28.55Q153.425 28.596874 152.56563 28.596874L148.33125 28.596874L148.33125 27.175L156.81563 27.175L156.81563 28.346874L151.19063 34.925L150.1125 36.128124Q151.28438 36.034374 152.33125 36.034374L157.12813 36.034374L157.12813 37.55L147.94063 37.55ZM164.97188 34.20625L166.78438 34.440624Q166.3625 36.01875 165.19063 36.909374Q164.03438 37.784374 162.22188 37.784374Q159.95625 37.784374 158.6125 36.39375Q157.28438 34.9875 157.28438 32.45625Q157.28438 29.83125 158.62813 28.39375Q159.97188 26.940624 162.12813 26.940624Q164.20625 26.940624 165.51875 28.3625Q166.84688 29.76875 166.84688 32.346874Q166.84688 32.503124 166.83125 32.815624L159.09688 32.815624Q159.19063 34.51875 160.06563 35.425Q160.94063 36.33125 162.2375 36.33125Q163.20625 36.33125 163.87813 35.83125Q164.56563 35.315624 164.97188 34.20625ZM159.19063 31.3625L164.9875 31.3625Q164.87813 30.065624 164.33125 29.409374Q163.4875 28.39375 162.14375 28.39375Q160.94063 28.39375 160.1125 29.20625Q159.28438 30.003124 159.19063 31.3625ZM168.87813 25.253124L168.87813 23.2375L170.64375 23.2375L170.64375 25.253124L168.87813 25.253124ZM168.87813 37.55L168.87813 27.175L170.64375 27.175L170.64375 37.55L168.87813 37.55ZM172.84688 37.55L172.84688 27.175L174.425 27.175L174.425 28.753124Q175.03438 27.64375 175.55 27.3Q176.06563 26.940624 176.675 26.940624Q177.56563 26.940624 178.4875 27.503124L177.87813 29.14375Q177.2375 28.753124 176.59688 28.753124Q176.01875 28.753124 175.55 29.1125Q175.09688 29.45625 174.89375 30.065624Q174.6125 31.003124 174.6125 32.1125L174.6125 37.55L172.84688 37.55ZM179.22188 32.3625Q179.22188 29.4875 180.81563 28.096874Q182.15938 26.940624 184.08125 26.940624Q186.22188 26.940624 187.56563 28.346874Q188.925 29.753124 188.925 32.221874Q188.925 34.221874 188.33125 35.378124Q187.7375 36.51875 186.58125 37.159374Q185.44063 37.784374 184.08125 37.784374Q181.89375 37.784374 180.55 36.39375Q179.22188 34.9875 179.22188 32.3625ZM181.01875 32.3625Q181.01875 34.3625 181.87813 35.346874Q182.75313 36.33125 184.08125 36.33125Q185.39375 36.33125 186.25313 35.346874Q187.12813 34.346874 187.12813 32.3Q187.12813 30.378124 186.25313 29.39375Q185.37813 28.39375 184.08125 28.39375Q182.75313 28.39375 181.87813 29.39375Q181.01875 30.378124 181.01875 32.3625ZM203.97188 34.20625L205.78438 34.440624Q205.3625 36.01875 204.19063 36.909374Q203.03438 37.784374 201.22188 37.784374Q198.95625 37.784374 197.6125 36.39375Q196.28438 34.9875 196.28438 32.45625Q196.28438 29.83125 197.62813 28.39375Q198.97188 26.940624 201.12813 26.940624Q203.20625 26.940624 204.51875 28.3625Q205.84688 29.76875 205.84688 32.346874Q205.84688 32.503124 205.83125 32.815624L198.09688 32.815624Q198.19063 34.51875 199.06563 35.425Q199.94063 36.33125 201.2375 36.33125Q202.20625 36.33125 202.87813 35.83125Q203.56563 35.315624 203.97188 34.20625ZM198.19063 31.3625L203.9875 31.3625Q203.87813 30.065624 203.33125 29.409374Q202.4875 28.39375 201.14375 28.39375Q199.94063 28.39375 199.1125 29.20625Q198.28438 30.003124 198.19063 31.3625ZM214.09688 37.55L214.09688 23.2375L219.4875 23.2375Q220.925 23.2375 221.675 23.3625Q222.72188 23.55 223.44063 24.05Q224.15938 24.534374 224.58125 25.425Q225.01875 26.315624 225.01875 27.378124Q225.01875 29.20625 223.84688 30.471874Q222.69063 31.721874 219.65938 31.721874L215.9875 31.721874L215.9875 37.55L214.09688 37.55ZM215.9875 30.034374L219.69063 30.034374Q221.51875 30.034374 222.28438 29.3625Q223.06563 28.675 223.06563 27.425Q223.06563 26.534374 222.6125 25.89375Q222.15938 25.253124 221.425 25.05Q220.94063 24.925 219.64375 24.925L215.9875 24.925L215.9875 30.034374ZM226.22188 32.3625Q226.22188 29.4875 227.81563 28.096874Q229.15938 26.940624 231.08125 26.940624Q233.22188 26.940624 234.56563 28.346874Q235.925 29.753124 235.925 32.221874Q235.925 34.221874 235.33125 35.378124Q234.7375 36.51875 233.58125 37.159374Q232.44063 37.784374 231.08125 37.784374Q228.89375 37.784374 227.55 36.39375Q226.22188 34.9875 226.22188 32.3625ZM228.01875 32.3625Q228.01875 34.3625 228.87813 35.346874Q229.75313 36.33125 231.08125 36.33125Q232.39375 36.33125 233.25313 35.346874Q234.12813 34.346874 234.12813 32.3Q234.12813 30.378124 233.25313 29.39375Q232.37813 28.39375 231.08125 28.39375Q229.75313 28.39375 228.87813 29.39375Q228.01875 30.378124 228.01875 32.3625ZM237.8625 41.51875L237.8625 27.175L239.47188 27.175L239.47188 28.51875Q240.03438 27.7375 240.7375 27.346874Q241.45625 26.940624 242.47188 26.940624Q243.8 26.940624 244.81563 27.628124Q245.83125 28.315624 246.34688 29.565624Q246.87813 30.8 246.87813 32.284374Q246.87813 33.878124 246.3 35.159374Q245.7375 36.425 244.64375 37.1125Q243.55 37.784374 242.34688 37.784374Q241.47188 37.784374 240.76875 37.409374Q240.08125 37.034374 239.62813 36.471874L239.62813 41.51875L237.8625 41.51875ZM239.45625 32.425Q239.45625 34.425 240.26875 35.378124Q241.08125 36.33125 242.2375 36.33125Q243.40938 36.33125 244.2375 35.346874Q245.08125 34.3625 245.08125 32.26875Q245.08125 30.3 244.25313 29.315624Q243.44063 28.315624 242.31563 28.315624Q241.19063 28.315624 240.31563 29.378124Q239.45625 30.425 239.45625 32.425ZM255.65938 37.55L255.65938 36.01875Q254.45625 37.784374 252.37813 37.784374Q251.45625 37.784374 250.65938 37.440624Q249.8625 37.08125 249.47188 36.55Q249.09688 36.01875 248.94063 35.2375Q248.83125 34.721874 248.83125 33.596874L248.83125 27.175L250.58125 27.175L250.58125 32.925Q250.58125 34.3 250.69063 34.784374Q250.8625 35.471874 251.39375 35.878124Q251.94063 36.26875 252.72188 36.26875Q253.51875 36.26875 254.20625 35.8625Q254.90938 35.45625 255.19063 34.76875Q255.4875 34.065624 255.4875 32.7375L255.4875 27.175L257.2375 27.175L257.2375 37.55L255.65938 37.55ZM258.83124 37.55L258.83124 23.2375L260.58124 23.2375L260.58124 37.55L258.83124 37.55ZM269.64374 36.26875Q268.65936 37.096874 267.7531 37.440624Q266.84686 37.784374 265.8156 37.784374Q264.1125 37.784374 263.1906 36.95625Q262.26874 36.1125 262.26874 34.815624Q262.26874 34.05 262.6125 33.425Q262.97186 32.8 263.53436 32.425Q264.09686 32.034374 264.8 31.83125Q265.3156 31.70625 266.3625 31.565624Q268.4875 31.315624 269.4875 30.971874Q269.5031 30.6125 269.5031 30.503124Q269.5031 29.440624 269.0031 28.9875Q268.33124 28.39375 267.0031 28.39375Q265.7531 28.39375 265.15936 28.83125Q264.58124 29.26875 264.3 30.378124L262.58124 30.14375Q262.8156 29.034374 263.34686 28.3625Q263.8781 27.675 264.89374 27.315624Q265.90936 26.940624 267.2531 26.940624Q268.58124 26.940624 269.40936 27.253124Q270.2375 27.565624 270.6281 28.05Q271.01874 28.51875 271.175 29.2375Q271.26874 29.690624 271.26874 30.8625L271.26874 33.20625Q271.26874 35.659374 271.3781 36.315624Q271.4875 36.95625 271.83124 37.55L269.9875 37.55Q269.72186 37.003124 269.64374 36.26875ZM269.4875 32.346874Q268.53436 32.7375 266.6125 33.003124Q265.53436 33.159374 265.08124 33.3625Q264.64374 33.55 264.39374 33.925Q264.14374 34.3 264.14374 34.76875Q264.14374 35.471874 264.675 35.940624Q265.20624 36.409374 266.2375 36.409374Q267.2531 36.409374 268.03436 35.971874Q268.83124 35.51875 269.20624 34.753124Q269.4875 34.14375 269.4875 32.9875L269.4875 32.346874ZM280.64374 33.753124L282.3625 33.971874Q282.08124 35.76875 280.90936 36.784374Q279.7531 37.784374 278.05 37.784374Q275.925 37.784374 274.6281 36.39375Q273.33124 35.003124 273.33124 32.409374Q273.33124 30.721874 273.8781 29.471874Q274.4406 28.20625 275.58124 27.58125Q276.72186 26.940624 278.0656 26.940624Q279.7531 26.940624 280.8156 27.8Q281.89374 28.659374 282.20624 30.221874L280.4875 30.4875Q280.2531 29.440624 279.6281 28.925Q279.0031 28.39375 278.1281 28.39375Q276.8 28.39375 275.97186 29.346874Q275.14374 30.3 275.14374 32.346874Q275.14374 34.440624 275.9406 35.39375Q276.7375 36.33125 278.03436 36.33125Q279.0656 36.33125 279.7531 35.70625Q280.45624 35.065624 280.64374 33.753124ZM276.5656 38.846874L277.08124 37.128124L278.3781 37.128124L278.0656 38.175Q278.89374 38.26875 279.3156 38.675Q279.7375 39.096874 279.7375 39.596874Q279.7375 40.33125 279.03436 40.89375Q278.33124 41.45625 276.90936 41.45625Q276.1125 41.45625 275.5031 41.346874L275.6125 40.20625Q276.2375 40.2375 276.53436 40.2375Q277.4406 40.2375 277.8156 39.9875Q278.09686 39.784374 278.09686 39.503124Q278.09686 39.33125 277.9875 39.190624Q277.8781 39.05 277.5656 38.95625Q277.26874 38.8625 276.5656 38.846874ZM290.64374 36.26875Q289.65936 37.096874 288.7531 37.440624Q287.84686 37.784374 286.8156 37.784374Q285.1125 37.784374 284.1906 36.95625Q283.26874 36.1125 283.26874 34.815624Q283.26874 34.05 283.6125 33.425Q283.97186 32.8 284.53436 32.425Q285.09686 32.034374 285.8 31.83125Q286.3156 31.70625 287.3625 31.565624Q289.4875 31.315624 290.4875 30.971874Q290.5031 30.6125 290.5031 30.503124Q290.5031 29.440624 290.0031 28.9875Q289.33124 28.39375 288.0031 28.39375Q286.7531 28.39375 286.15936 28.83125Q285.58124 29.26875 285.3 30.378124L283.58124 30.14375Q283.8156 29.034374 284.34686 28.3625Q284.8781 27.675 285.89374 27.315624Q286.90936 26.940624 288.2531 26.940624Q289.58124 26.940624 290.40936 27.253124Q291.2375 27.565624 291.6281 28.05Q292.01874 28.51875 292.175 29.2375Q292.26874 29.690624 292.26874 30.8625L292.26874 33.20625Q292.26874 35.659374 292.3781 36.315624Q292.4875 36.95625 292.83124 37.55L290.9875 37.55Q290.72186 37.003124 290.64374 36.26875ZM290.4875 32.346874Q289.53436 32.7375 287.6125 33.003124Q286.53436 33.159374 286.08124 33.3625Q285.64374 33.55 285.39374 33.925Q285.14374 34.3 285.14374 34.76875Q285.14374 35.471874 285.675 35.940624Q286.20624 36.409374 287.2375 36.409374Q288.2531 36.409374 289.03436 35.971874Q289.83124 35.51875 290.20624 34.753124Q290.4875 34.14375 290.4875 32.9875L290.4875 32.346874ZM284.78436 25.64375Q284.78436 24.628124 285.34686 24.01875Q285.90936 23.425 286.76874 23.425Q287.3781 23.425 288.425 23.940624Q289.0031 24.2375 289.34686 24.2375Q289.65936 24.2375 289.8156 24.065624Q289.9875 23.89375 290.05 23.39375L291.33124 23.39375Q291.3 24.503124 290.76874 25.065624Q290.2375 25.6125 289.40936 25.6125Q288.8 25.6125 287.78436 25.065624Q287.1281 24.721874 286.83124 24.721874Q286.5031 24.721874 286.3 24.95625Q286.08124 25.190624 286.09686 25.64375L284.78436 25.64375ZM294.22186 32.3625Q294.22186 29.4875 295.8156 28.096874Q297.15936 26.940624 299.08124 26.940624Q301.22186 26.940624 302.5656 28.346874Q303.925 29.753124 303.925 32.221874Q303.925 34.221874 303.33124 35.378124Q302.7375 36.51875 301.58124 37.159374Q300.4406 37.784374 299.08124 37.784374Q296.89374 37.784374 295.55 36.39375Q294.22186 34.9875 294.22186 32.3625ZM296.01874 32.3625Q296.01874 34.3625 296.8781 35.346874Q297.7531 36.33125 299.08124 36.33125Q300.39374 36.33125 301.2531 35.346874Q302.1281 34.346874 302.1281 32.3Q302.1281 30.378124 301.2531 29.39375Q300.3781 28.39375 299.08124 28.39375Q297.7531 28.39375 296.8781 29.39375Q296.01874 30.378124 296.01874 32.3625ZM312.09686 37.55L312.09686 23.2375L317.4875 23.2375Q318.925 23.2375 319.675 23.3625Q320.72186 23.55 321.4406 24.05Q322.15936 24.534374 322.58124 25.425Q323.01874 26.315624 323.01874 27.378124Q323.01874 29.20625 321.84686 30.471874Q320.6906 31.721874 317.65936 31.721874L313.9875 31.721874L313.9875 37.55L312.09686 37.55ZM313.9875 30.034374L317.6906 30.034374Q319.51874 30.034374 320.28436 29.3625Q321.0656 28.675 321.0656 27.425Q321.0656 26.534374 320.6125 25.89375Q320.15936 25.253124 319.425 25.05Q318.9406 24.925 317.64374 24.925L313.9875 24.925L313.9875 30.034374ZM331.97186 34.20625L333.78436 34.440624Q333.3625 36.01875 332.1906 36.909374Q331.03436 37.784374 329.22186 37.784374Q326.95624 37.784374 325.6125 36.39375Q324.28436 34.9875 324.28436 32.45625Q324.28436 29.83125 325.6281 28.39375Q326.97186 26.940624 329.1281 26.940624Q331.20624 26.940624 332.51874 28.3625Q333.84686 29.76875 333.84686 32.346874Q333.84686 32.503124 333.83124 32.815624L326.09686 32.815624Q326.1906 34.51875 327.0656 35.425Q327.9406 36.33125 329.2375 36.33125Q330.20624 36.33125 330.8781 35.83125Q331.5656 35.315624 331.97186 34.20625ZM326.1906 31.3625L331.9875 31.3625Q331.8781 30.065624 331.33124 29.409374Q330.4875 28.39375 329.14374 28.39375Q327.9406 28.39375 327.1125 29.20625Q326.28436 30.003124 326.1906 31.3625ZM339.70624 35.971874L339.95624 37.534374Q339.22186 37.690624 338.6281 37.690624Q337.675 37.690624 337.14374 37.39375Q336.6281 37.08125 336.40936 36.596874Q336.1906 36.096874 336.1906 34.51875L336.1906 28.55L334.90936 28.55L334.90936 27.175L336.1906 27.175L336.1906 24.6125L337.9406 23.55L337.9406 27.175L339.70624 27.175L339.70624 28.55L337.9406 28.55L337.9406 34.6125Q337.9406 35.3625 338.03436 35.58125Q338.1281 35.784374 338.33124 35.925Q338.55 36.05 338.9406 36.05Q339.22186 36.05 339.70624 35.971874ZM341.84686 37.55L341.84686 27.175L343.425 27.175L343.425 28.753124Q344.03436 27.64375 344.55 27.3Q345.0656 26.940624 345.675 26.940624Q346.5656 26.940624 347.4875 27.503124L346.8781 29.14375Q346.2375 28.753124 345.59686 28.753124Q345.01874 28.753124 344.55 29.1125Q344.09686 29.45625 343.89374 30.065624Q343.6125 31.003124 343.6125 32.1125L343.6125 37.55L341.84686 37.55ZM348.22186 32.3625Q348.22186 29.4875 349.8156 28.096874Q351.15936 26.940624 353.08124 26.940624Q355.22186 26.940624 356.5656 28.346874Q357.925 29.753124 357.925 32.221874Q357.925 34.221874 357.33124 35.378124Q356.7375 36.51875 355.58124 37.159374Q354.4406 37.784374 353.08124 37.784374Q350.89374 37.784374 349.55 36.39375Q348.22186 34.9875 348.22186 32.3625ZM350.01874 32.3625Q350.01874 34.3625 350.8781 35.346874Q351.7531 36.33125 353.08124 36.33125Q354.39374 36.33125 355.2531 35.346874Q356.1281 34.346874 356.1281 32.3Q356.1281 30.378124 355.2531 29.39375Q354.3781 28.39375 353.08124 28.39375Q351.7531 28.39375 350.8781 29.39375Q350.01874 30.378124 350.01874 32.3625ZM359.83124 37.55L359.83124 23.2375L361.58124 23.2375L361.58124 37.55L359.83124 37.55ZM363.8781 25.253124L363.8781 23.2375L365.64374 23.2375L365.64374 25.253124L363.8781 25.253124ZM363.8781 37.55L363.8781 27.175L365.64374 27.175L365.64374 37.55L363.8781 37.55ZM367.8625 37.55L367.8625 27.175L369.45624 27.175L369.45624 28.659374Q370.59686 26.940624 372.7531 26.940624Q373.6906 26.940624 374.47186 27.284374Q375.26874 27.6125 375.65936 28.159374Q376.05 28.70625 376.20624 29.45625Q376.3 29.95625 376.3 31.175L376.3 37.55L374.53436 37.55L374.53436 31.2375Q374.53436 30.159374 374.33124 29.628124Q374.1281 29.096874 373.59686 28.784374Q373.08124 28.471874 372.3781 28.471874Q371.2531 28.471874 370.4406 29.190624Q369.6281 29.89375 369.6281 31.878124L369.6281 37.55L367.8625 37.55ZM384.64374 36.26875Q383.65936 37.096874 382.7531 37.440624Q381.84686 37.784374 380.8156 37.784374Q379.1125 37.784374 378.1906 36.95625Q377.26874 36.1125 377.26874 34.815624Q377.26874 34.05 377.6125 33.425Q377.97186 32.8 378.53436 32.425Q379.09686 32.034374 379.8 31.83125Q380.3156 31.70625 381.3625 31.565624Q383.4875 31.315624 384.4875 30.971874Q384.5031 30.6125 384.5031 30.503124Q384.5031 29.440624 384.0031 28.9875Q383.33124 28.39375 382.0031 28.39375Q380.7531 28.39375 380.15936 28.83125Q379.58124 29.26875 379.3 30.378124L377.58124 30.14375Q377.8156 29.034374 378.34686 28.3625Q378.8781 27.675 379.89374 27.315624Q380.90936 26.940624 382.2531 26.940624Q383.58124 26.940624 384.40936 27.253124Q385.2375 27.565624 385.6281 28.05Q386.01874 28.51875 386.175 29.2375Q386.26874 29.690624 386.26874 30.8625L386.26874 33.20625Q386.26874 35.659374 386.3781 36.315624Q386.4875 36.95625 386.83124 37.55L384.9875 37.55Q384.72186 37.003124 384.64374 36.26875ZM384.4875 32.346874Q383.53436 32.7375 381.6125 33.003124Q380.53436 33.159374 380.08124 33.3625Q379.64374 33.55 379.39374 33.925Q379.14374 34.3 379.14374 34.76875Q379.14374 35.471874 379.675 35.940624Q380.20624 36.409374 381.2375 36.409374Q382.2531 36.409374 383.03436 35.971874Q383.83124 35.51875 384.20624 34.753124Q384.4875 34.14375 384.4875 32.9875L384.4875 32.346874Z" fill-rule="nonzero"/></svg>